<mxfile host="app.diagrams.net" agent="Mozilla/5.0 (Windows NT 10.0; Win64; x64) AppleWebKit/537.36 (KHTML, like Gecko) Chrome/131.0.0.0 Safari/537.36" modified="2024-12-18T02:49:36.535Z" version="24.2.7" etag="GIXNyxhDFiLC-AAzQtam" type="device">
  <diagram id="WI9T0HZ2pTsCkuznbFz-" name="V1-RG_VIEW_NOFAB">
    <mxGraphModel dx="3695" dy="1544" grid="1" gridSize="10" guides="1" tooltips="1" connect="1" arrows="1" fold="1" page="1" pageScale="1" pageWidth="827" pageHeight="1169" math="0" shadow="0">
      <root>
        <mxCell id="0" />
        <mxCell id="1" parent="0" />
        <mxCell id="e6AIboaMO65mBt60haEZ-37" value="PEERING" style="outlineConnect=0;dashed=0;verticalLabelPosition=bottom;verticalAlign=top;align=center;html=1;shape=mxgraph.aws3.vpc_peering;fillColor=#F58534;gradientColor=none;" parent="1" vertex="1">
          <mxGeometry x="690" y="919.42" width="69" height="72" as="geometry" />
        </mxCell>
        <mxCell id="aoSBfK80zF7dZtvipX5W-3" value="" style="group" vertex="1" connectable="0" parent="1">
          <mxGeometry x="550" y="210" width="590" height="670" as="geometry" />
        </mxCell>
        <mxCell id="aoSBfK80zF7dZtvipX5W-1" value="" style="group" vertex="1" connectable="0" parent="aoSBfK80zF7dZtvipX5W-3">
          <mxGeometry x="23.918918918918912" y="82.71604938271605" width="566.081081081081" height="587.2839506172841" as="geometry" />
        </mxCell>
        <mxCell id="e6AIboaMO65mBt60haEZ-29" value="" style="whiteSpace=wrap;html=1;aspect=fixed;movable=1;resizable=1;rotatable=1;deletable=1;editable=1;locked=0;connectable=1;" parent="aoSBfK80zF7dZtvipX5W-1" vertex="1">
          <mxGeometry width="457.61337608795236" height="457.61337608795236" as="geometry" />
        </mxCell>
        <mxCell id="e6AIboaMO65mBt60haEZ-33" value="" style="container=0;collapsible=0;expand=0;recursiveResize=0;html=1;whiteSpace=wrap;image=;strokeColor=#FA4D56;fillColor=none;dashed=1;dashPattern=1 3;strokeWidth=2;movable=1;resizable=1;rotatable=1;deletable=1;editable=1;locked=0;connectable=1;" parent="aoSBfK80zF7dZtvipX5W-1" vertex="1">
          <mxGeometry x="23.92" y="24.81" width="416.08" height="140.62" as="geometry" />
        </mxCell>
        <mxCell id="e6AIboaMO65mBt60haEZ-34" value="CLNPD1-ZCACN-RGP-EMLI-MDSreporting&#xa;" style="shape=rect;fillColor=none;aspect=fixed;resizable=0;labelPosition=right;verticalLabelPosition=middle;align=left;verticalAlign=middle;strokeColor=none;part=1;spacingLeft=5;fontSize=14;" parent="e6AIboaMO65mBt60haEZ-33" vertex="1">
          <mxGeometry width="48" height="48" relative="1" as="geometry" />
        </mxCell>
        <mxCell id="e6AIboaMO65mBt60haEZ-35" value="" style="fillColor=#FA4D56;shape=mxgraph.ibm_cloud.group--resource;strokeColor=none;dashed=0;outlineConnect=0;html=1;labelPosition=center;verticalLabelPosition=bottom;verticalAlign=top;part=1;movable=0;resizable=0;rotatable=0;" parent="e6AIboaMO65mBt60haEZ-34" vertex="1">
          <mxGeometry width="24" height="24" relative="1" as="geometry">
            <mxPoint x="12" y="12" as="offset" />
          </mxGeometry>
        </mxCell>
        <mxCell id="e6AIboaMO65mBt60haEZ-36" value="&lt;a class=&quot;fxc-gcflink-link&quot; tabindex=&quot;0&quot; href=&quot;https://portal.azure.com/#@bcgov.onmicrosoft.com/resource/subscriptions/be5c5c2b-d7e6-4940-ae15-37d7ef061283/resourceGroups/CLNPD1-ZCACN-RGP-EMLI-MDSreporting/providers/Microsoft.DBforPostgreSQL/flexibleServers/mds-reporting-pg13-live&quot; style=&quot;font-size: 13px; text-decoration-line: none; vertical-align: middle; padding: 1px; cursor: pointer; font-family: az_ea_font, &amp;quot;Segoe UI&amp;quot;, az_font, system-ui, -apple-system, &amp;quot;system-ui&amp;quot;, Roboto, Oxygen, Ubuntu, Cantarell, &amp;quot;Open Sans&amp;quot;, &amp;quot;Helvetica Neue&amp;quot;, sans-serif; text-align: left; background-color: rgb(225, 223, 221); outline: 0px !important;&quot;&gt;mds-reporting-pg13-live&lt;/a&gt;" style="image;aspect=fixed;html=1;points=[];align=center;fontSize=12;image=img/lib/azure2/databases/Azure_Database_PostgreSQL_Server.svg;" parent="e6AIboaMO65mBt60haEZ-33" vertex="1">
          <mxGeometry x="47.837837837837824" y="33.086419753086425" width="30.937242327072838" height="41.24965643609711" as="geometry" />
        </mxCell>
        <mxCell id="e6AIboaMO65mBt60haEZ-32" value="VNET01" style="shape=image;verticalLabelPosition=bottom;labelBackgroundColor=#ffffff;verticalAlign=top;aspect=fixed;imageAspect=0;image=data:image/svg+xml,PHN2ZyB4bWxuczpjYz0iaHR0cDovL2NyZWF0aXZlY29tbW9ucy5vcmcvbnMjIiB4bWxuczpkYz0iaHR0cDovL3B1cmwub3JnL2RjL2VsZW1lbnRzLzEuMS8iIHhtbG5zOmlua3NjYXBlPSJodHRwOi8vd3d3Lmlua3NjYXBlLm9yZy9uYW1lc3BhY2VzL2lua3NjYXBlIiB4bWxuczpyZGY9Imh0dHA6Ly93d3cudzMub3JnLzE5OTkvMDIvMjItcmRmLXN5bnRheC1ucyMiIHhtbG5zOnNvZGlwb2RpPSJodHRwOi8vc29kaXBvZGkuc291cmNlZm9yZ2UubmV0L0RURC9zb2RpcG9kaS0wLmR0ZCIgeG1sbnM6c3ZnPSJodHRwOi8vd3d3LnczLm9yZy8yMDAwL3N2ZyIgeG1sbnM9Imh0dHA6Ly93d3cudzMub3JnLzIwMDAvc3ZnIiB4bWxuczp4bGluaz0iaHR0cDovL3d3dy53My5vcmcvMTk5OS94bGluayIgdmVyc2lvbj0iMS4xIiBpZD0ic3ZnNjEzNCIgaW5rc2NhcGU6dmVyc2lvbj0iMC45Mi4zICgyNDA1NTQ2LCAyMDE4LTAzLTExKSIgc29kaXBvZGk6ZG9jbmFtZT0idmlydHVhbF9uZXR3b3JrXzEuc3ZnIiB4PSIwcHgiIHk9IjBweCIgdmlld0JveD0iMCAwIDM0LjYxIDE5Ljg1IiBzdHlsZT0iZW5hYmxlLWJhY2tncm91bmQ6bmV3IDAgMCAzNC42MSAxOS44NTsiIHhtbDpzcGFjZT0icHJlc2VydmUiPiYjeGE7PHNvZGlwb2RpOm5hbWVkdmlldyBib3JkZXJjb2xvcj0iIzY2NjY2NiIgYm9yZGVyb3BhY2l0eT0iMSIgZml0LW1hcmdpbi1ib3R0b209IjAiIGZpdC1tYXJnaW4tbGVmdD0iMCIgZml0LW1hcmdpbi1yaWdodD0iMCIgZml0LW1hcmdpbi10b3A9IjAiIGdyaWR0b2xlcmFuY2U9IjEwIiBndWlkZXRvbGVyYW5jZT0iMTAiIGlkPSJuYW1lZHZpZXc2MTM2IiBpbmtzY2FwZTpjdXJyZW50LWxheWVyPSJzdmc2MTM0IiBpbmtzY2FwZTpjeD0iMjMuMDc1MjcxIiBpbmtzY2FwZTpjeT0iMTMuMjMyNTUiIGlua3NjYXBlOnBhZ2VvcGFjaXR5PSIwIiBpbmtzY2FwZTpwYWdlc2hhZG93PSIyIiBpbmtzY2FwZTp3aW5kb3ctaGVpZ2h0PSIxMDE3IiBpbmtzY2FwZTp3aW5kb3ctbWF4aW1pemVkPSIxIiBpbmtzY2FwZTp3aW5kb3ctd2lkdGg9IjE5MjAiIGlua3NjYXBlOndpbmRvdy14PSItOCIgaW5rc2NhcGU6d2luZG93LXk9Ii04IiBpbmtzY2FwZTp6b29tPSIxNC42Njg5NzgiIG9iamVjdHRvbGVyYW5jZT0iMTAiIHBhZ2Vjb2xvcj0iI2ZmZmZmZiIgc2hvd2dyaWQ9ImZhbHNlIj4mI3hhOwk8L3NvZGlwb2RpOm5hbWVkdmlldz4mI3hhOzxnIGlkPSJnNjEzMiIgdHJhbnNmb3JtPSJ0cmFuc2xhdGUoLTEyLjI0MTQ2MSwtMTIuMjM5MSkiPiYjeGE7CTx0aXRsZSBpZD0idGl0bGU2MTAyIj5QYWdlLTE8L3RpdGxlPiYjeGE7CTxnIGlkPSJncm91cDk1MDctMSIgdHJhbnNmb3JtPSJ0cmFuc2xhdGUoMTIuMTI4NCwtMTIuMTI4NCkiPiYjeGE7CQk8dGl0bGUgaWQ9InRpdGxlNjEwNCI+VmlydHVhbCBOZXR3b3JrICMxPC90aXRsZT4mI3hhOwkJPGcgaWQ9InNoYXBlOTUwOC0yIiB0cmFuc2Zvcm09InRyYW5zbGF0ZSgyMy43MDk5KSI+JiN4YTsJCQk8dGl0bGUgaWQ9InRpdGxlNjEwNiI+U2hlZXQuOTUwODwvdGl0bGU+JiN4YTsJCQk8cGF0aCBpZD0icGF0aDYxMDgiIGlua3NjYXBlOmNvbm5lY3Rvci1jdXJ2YXR1cmU9IjAiIHN0eWxlPSJmaWxsOiMzOTk5QzY7IiBkPSJNMTAuNzgsMzQuNzljMC4zNS0wLjM1LDAuMjgtMC45LDAtMS4yNSAgICAgbC0xLjY2LTEuNjVsLTcuNDYtNy4yNmMtMC4zNS0wLjM1LTAuODMtMC4zNS0xLjE4LDBjLTAuMzQsMC4zNC0wLjQxLDAuOSwwLDEuMjRsNy44Miw3LjY3YzAuMzQsMC4zNSwwLjM0LDAuOSwwLDEuMjVsLTcuOTUsNy45NSAgICAgYy0wLjM1LDAuMzQtMC4zNSwwLjksMCwxLjI0YzAuMzQsMC4zNSwwLjg5LDAuMjgsMS4xNywwbDcuNC03LjMyYzAsMCwwLDAsMC4wNy0wLjA3TDEwLjc4LDM0Ljc5eiIvPiYjeGE7CQk8L2c+JiN4YTsJCTxnIGlkPSJzaGFwZTk1MDktNCI+JiN4YTsJCQk8dGl0bGUgaWQ9InRpdGxlNjExMSI+U2hlZXQuOTUwOTwvdGl0bGU+JiN4YTsJCQk8cGF0aCBpZD0icGF0aDYxMTMiIGlua3NjYXBlOmNvbm5lY3Rvci1jdXJ2YXR1cmU9IjAiIHN0eWxlPSJmaWxsOiMzOTk5QzY7IiBkPSJNMC4zNSwzNC43OWMtMC4zNS0wLjM1LTAuMjgtMC45LDAtMS4yNUwyLDMxLjg5ICAgICBsNy40Ny03LjI2YzAuMzUtMC4zNSwwLjgzLTAuMzUsMS4xOCwwYzAuMzQsMC4zNCwwLjQxLDAuOSwwLDEuMjRsLTcuNjgsNy42N2MtMC4zNCwwLjM1LTAuMzQsMC45LDAsMS4yNWw3LjgxLDcuOTUgICAgIGMwLjM1LDAuMzQsMC4zNSwwLjksMCwxLjI0Yy0wLjM0LDAuMzUtMC45LDAuMjgtMS4xNywwbC03LjU0LTcuMjZjMCwwLDAsMC0wLjA3LTAuMDZMMC4zNSwzNC43OXoiLz4mI3hhOwkJPC9nPiYjeGE7CQk8ZyBpZD0ic2hhcGU5NTEwLTYiIHRyYW5zZm9ybT0idHJhbnNsYXRlKDguMDE4NTEsLTcuODgwMjYpIj4mI3hhOwkJCTx0aXRsZSBpZD0idGl0bGU2MTE2Ij5TaGVldC45NTEwPC90aXRsZT4mI3hhOwkJCTxwYXRoIGlkPSJwYXRoNjExOCIgaW5rc2NhcGU6Y29ubmVjdG9yLWN1cnZhdHVyZT0iMCIgc3R5bGU9ImZpbGw6IzdGQkEwMDsiIGQ9Ik00LjcsNDIuMDVjMCwxLjMxLTEuMTEsMi4yOC0yLjI4LDIuMjggICAgIEMxLjI0LDQ0LjMzLDAsNDMuMjIsMCw0Mi4wNWMwLTEuMTgsMC45Ny0yLjI4LDIuNDItMi4yOEMzLjgsMzkuNzcsNC43LDQwLjg3LDQuNyw0Mi4wNXoiLz4mI3hhOwkJPC9nPiYjeGE7CQk8ZyBpZD0ic2hhcGU5NTExLTgiIHRyYW5zZm9ybT0idHJhbnNsYXRlKDE1LjAwMDEsLTcuODgwMjYpIj4mI3hhOwkJCTx0aXRsZSBpZD0idGl0bGU2MTIxIj5TaGVldC45NTExPC90aXRsZT4mI3hhOwkJCTxwYXRoIGlkPSJwYXRoNjEyMyIgaW5rc2NhcGU6Y29ubmVjdG9yLWN1cnZhdHVyZT0iMCIgc3R5bGU9ImZpbGw6IzdGQkEwMDsiIGQ9Ik00LjcsNDIuMDVjMCwxLjMxLTEuMTEsMi4yOC0yLjI4LDIuMjggICAgIEMxLjI0LDQ0LjMzLDAsNDMuMjIsMCw0Mi4wNWMwLTEuMTgsMS4xMS0yLjI4LDIuNDItMi4yOFM0LjcsNDAuODcsNC43LDQyLjA1eiIvPiYjeGE7CQk8L2c+JiN4YTsJCTxnIGlkPSJzaGFwZTk1MTItMTAiIHRyYW5zZm9ybT0idHJhbnNsYXRlKDIyLjE4OTIsLTcuODgwMjYpIj4mI3hhOwkJCTx0aXRsZSBpZD0idGl0bGU2MTI2Ij5TaGVldC45NTEyPC90aXRsZT4mI3hhOwkJCTxjaXJjbGUgaWQ9ImVsbGlwc2U2MTI4IiBzdHlsZT0iZmlsbDojN0ZCQTAwOyIgY3g9IjIuMjgiIGN5PSI0Mi4wNSIgcj0iMi4yOCIvPiYjeGE7CQk8L2c+JiN4YTsJPC9nPiYjeGE7PC9nPiYjeGE7PC9zdmc+;" parent="e6AIboaMO65mBt60haEZ-33" vertex="1">
          <mxGeometry x="158.66216216216213" y="39.4720987654321" width="54.78469995419148" height="31.304622079706828" as="geometry" />
        </mxCell>
        <mxCell id="aoSBfK80zF7dZtvipX5W-2" value="" style="group" vertex="1" connectable="0" parent="aoSBfK80zF7dZtvipX5W-3">
          <mxGeometry width="119.59459459459458" height="74.44444444444446" as="geometry" />
        </mxCell>
        <mxCell id="e6AIboaMO65mBt60haEZ-30" value="" style="image;sketch=0;aspect=fixed;html=1;points=[];align=center;fontSize=12;image=img/lib/mscae/Key.svg;" parent="aoSBfK80zF7dZtvipX5W-2" vertex="1">
          <mxGeometry x="23.918918918918912" width="19.98030233623454" height="32.226294090700875" as="geometry" />
        </mxCell>
        <mxCell id="e6AIboaMO65mBt60haEZ-31" value="&lt;b&gt;BCGov-MGD-CLNPD1&lt;/b&gt;" style="text;html=1;align=center;verticalAlign=middle;resizable=0;points=[];autosize=1;strokeColor=none;fillColor=none;" parent="aoSBfK80zF7dZtvipX5W-2" vertex="1">
          <mxGeometry y="49.62962962962963" width="150" height="30" as="geometry" />
        </mxCell>
        <mxCell id="aoSBfK80zF7dZtvipX5W-10" value="" style="group" vertex="1" connectable="0" parent="1">
          <mxGeometry x="-710" y="50" width="1210" height="1330" as="geometry" />
        </mxCell>
        <mxCell id="aoSBfK80zF7dZtvipX5W-4" value="" style="group" vertex="1" connectable="0" parent="aoSBfK80zF7dZtvipX5W-10">
          <mxGeometry x="8.705035971223023" width="109.68345323741008" height="45.86206896551724" as="geometry" />
        </mxCell>
        <mxCell id="e5pfJM86G6l2ak3opZq5-1" value="" style="image;sketch=0;aspect=fixed;html=1;points=[];align=center;fontSize=12;image=img/lib/mscae/Key.svg;" parent="aoSBfK80zF7dZtvipX5W-4" vertex="1">
          <mxGeometry width="26.98561151079137" height="43.52517985611511" as="geometry" />
        </mxCell>
        <mxCell id="e5pfJM86G6l2ak3opZq5-3" value="&lt;b&gt;ef74b0-{ENV}&lt;/b&gt;" style="text;html=1;align=center;verticalAlign=middle;resizable=0;points=[];autosize=1;strokeColor=none;fillColor=none;" parent="aoSBfK80zF7dZtvipX5W-4" vertex="1">
          <mxGeometry x="22.633093525179856" y="9.172413793103448" width="100" height="30" as="geometry" />
        </mxCell>
        <mxCell id="aoSBfK80zF7dZtvipX5W-8" value="" style="group" vertex="1" connectable="0" parent="aoSBfK80zF7dZtvipX5W-10">
          <mxGeometry y="55.03448275862068" width="1210" height="1274.9655172413793" as="geometry" />
        </mxCell>
        <mxCell id="e5pfJM86G6l2ak3opZq5-2" value="" style="whiteSpace=wrap;html=1;aspect=fixed;" parent="aoSBfK80zF7dZtvipX5W-8" vertex="1">
          <mxGeometry width="1210" height="1210" as="geometry" />
        </mxCell>
        <mxCell id="e6AIboaMO65mBt60haEZ-2" value="" style="container=0;collapsible=0;expand=0;recursiveResize=0;html=1;whiteSpace=wrap;image=;strokeColor=#FA4D56;fillColor=none;dashed=1;dashPattern=1 3;strokeWidth=2;movable=1;resizable=1;rotatable=1;deletable=1;editable=1;locked=0;connectable=1;" parent="aoSBfK80zF7dZtvipX5W-8" vertex="1">
          <mxGeometry x="30.467625899280577" y="35.83965517241379" width="1149.064748201439" height="155.9310344827586" as="geometry" />
        </mxCell>
        <mxCell id="e6AIboaMO65mBt60haEZ-3" value="rg-mdp-core-{ENV}-ca" style="shape=rect;fillColor=none;aspect=fixed;resizable=0;labelPosition=right;verticalLabelPosition=middle;align=left;verticalAlign=middle;strokeColor=none;part=1;spacingLeft=5;fontSize=14;" parent="e6AIboaMO65mBt60haEZ-2" vertex="1">
          <mxGeometry width="48" height="48" relative="1" as="geometry" />
        </mxCell>
        <mxCell id="e6AIboaMO65mBt60haEZ-4" value="" style="fillColor=#FA4D56;shape=mxgraph.ibm_cloud.group--resource;strokeColor=none;dashed=0;outlineConnect=0;html=1;labelPosition=center;verticalLabelPosition=bottom;verticalAlign=top;part=1;movable=0;resizable=0;rotatable=0;" parent="e6AIboaMO65mBt60haEZ-3" vertex="1">
          <mxGeometry width="24" height="24" relative="1" as="geometry">
            <mxPoint x="12" y="12" as="offset" />
          </mxGeometry>
        </mxCell>
        <mxCell id="StiFzKHxYK-PWpklk6Yv-29" value="" style="group" vertex="1" connectable="0" parent="e6AIboaMO65mBt60haEZ-2">
          <mxGeometry x="189.5302158273381" y="28.28034482758619" width="96.48215827338126" height="85.95843463160512" as="geometry" />
        </mxCell>
        <mxCell id="zENB75zG4bbWQeP3-AkJ-24" value="vm-mdp-jumpbox-{ENV}-ca" style="image;aspect=fixed;html=1;points=[];align=center;fontSize=12;image=img/lib/azure2/compute/Virtual_Machine.svg;" vertex="1" parent="StiFzKHxYK-PWpklk6Yv-29">
          <mxGeometry x="13.86" y="17.7879310344828" width="68.76978417266189" height="63.79050359712231" as="geometry" />
        </mxCell>
        <mxCell id="StiFzKHxYK-PWpklk6Yv-28" value="&lt;span style=&quot;color: rgba(0, 0, 0, 0); font-family: monospace; font-size: 0px; text-align: start; background-color: rgb(251, 251, 251);&quot;&gt;%3CmxGraphModel%3E%3Croot%3E%3CmxCell%20id%3D%220%22%2F%3E%3CmxCell%20id%3D%221%22%20parent%3D%220%22%2F%3E%3CmxCell%20id%3D%222%22%20value%3D%22%22%20style%3D%22group%22%20vertex%3D%221%22%20connectable%3D%220%22%20parent%3D%221%22%3E%3CmxGeometry%20x%3D%22690%22%20y%3D%221250%22%20width%3D%22311.47540983606564%22%20height%3D%22540%22%20as%3D%22geometry%22%2F%3E%3C%2FmxCell%3E%3CmxCell%20id%3D%223%22%20value%3D%22%22%20style%3D%22sketch%3D0%3Bpoints%3D%5B%5B0%2C0%2C0%5D%2C%5B0.25%2C0%2C0%5D%2C%5B0.5%2C0%2C0%5D%2C%5B0.75%2C0%2C0%5D%2C%5B1%2C0%2C0%5D%2C%5B0%2C1%2C0%5D%2C%5B0.25%2C1%2C0%5D%2C%5B0.5%2C1%2C0%5D%2C%5B0.75%2C1%2C0%5D%2C%5B1%2C1%2C0%5D%2C%5B0%2C0.25%2C0%5D%2C%5B0%2C0.5%2C0%5D%2C%5B0%2C0.75%2C0%5D%2C%5B1%2C0.25%2C0%5D%2C%5B1%2C0.5%2C0%5D%2C%5B1%2C0.75%2C0%5D%5D%3BoutlineConnect%3D0%3BfontColor%3D%23232F3E%3BfillColor%3D%23ED7100%3BstrokeColor%3D%23ffffff%3Bdashed%3D0%3BverticalLabelPosition%3Dbottom%3BverticalAlign%3Dtop%3Balign%3Dcenter%3Bhtml%3D1%3BfontSize%3D12%3BfontStyle%3D0%3Baspect%3Dfixed%3Bshape%3Dmxgraph.aws4.resourceIcon%3BresIcon%3Dmxgraph.aws4.red_hat_openshift%3Bcontainer%3D0%3B%22%20vertex%3D%221%22%20parent%3D%222%22%3E%3CmxGeometry%20x%3D%2250%22%20y%3D%22-54.92244836398386%22%20width%3D%2227.040006458084548%22%20height%3D%2227.040006458084548%22%20as%3D%22geometry%22%2F%3E%3C%2FmxCell%3E%3CmxCell%20id%3D%224%22%20value%3D%22%22%20style%3D%22whiteSpace%3Dwrap%3Bhtml%3D1%3Baspect%3Dfixed%3Bmovable%3D1%3Bresizable%3D1%3Brotatable%3D1%3Bdeletable%3D1%3Beditable%3D1%3Blocked%3D0%3Bconnectable%3D1%3B%22%20vertex%3D%221%22%20parent%3D%222%22%3E%3CmxGeometry%20x%3D%2272.1395263141734%22%20y%3D%22-21.168227848101424%22%20width%3D%2272.45901639344262%22%20height%3D%2272.45901639344262%22%20as%3D%22geometry%22%2F%3E%3C%2FmxCell%3E%3CmxCell%20id%3D%225%22%20value%3D%22ON-PREM%20PG13%22%20style%3D%22image%3Baspect%3Dfixed%3Bhtml%3D1%3Bpoints%3D%5B%5D%3Balign%3Dcenter%3BfontSize%3D12%3Bimage%3Dimg%2Flib%2Fazure2%2Fdatabases%2FAzure_Database_PostgreSQL_Server.svg%3B%22%20vertex%3D%221%22%20parent%3D%222%22%3E%3CmxGeometry%20x%3D%22101.14954609860644%22%20y%3D%2217.86392405063276%22%20width%3D%2210.793516091376784%22%20height%3D%2214.391354788502378%22%20as%3D%22geometry%22%2F%3E%3C%2FmxCell%3E%3C%2Froot%3E%3C%2FmxGraphModel%3E&lt;/span&gt;" style="image;aspect=fixed;html=1;points=[];align=center;fontSize=12;image=img/lib/azure2/other/Private_Endpoints.svg;" vertex="1" parent="StiFzKHxYK-PWpklk6Yv-29">
          <mxGeometry x="57.302158273381245" width="39.18" height="37.27" as="geometry" />
        </mxCell>
        <mxCell id="StiFzKHxYK-PWpklk6Yv-80" value="" style="outlineConnect=0;dashed=0;verticalLabelPosition=bottom;verticalAlign=top;align=center;html=1;shape=mxgraph.aws3.disk;fillColor=#7D7C7C;gradientColor=none;" vertex="1" parent="StiFzKHxYK-PWpklk6Yv-29">
          <mxGeometry x="0.0021582733812692823" y="57.075517241379316" width="30" height="24.5" as="geometry" />
        </mxCell>
        <mxCell id="StiFzKHxYK-PWpklk6Yv-31" value="" style="group" vertex="1" connectable="0" parent="e6AIboaMO65mBt60haEZ-2">
          <mxGeometry x="349.5361870503598" y="28.28034482758619" width="99.17618705035966" height="83.65665839742002" as="geometry" />
        </mxCell>
        <mxCell id="zENB75zG4bbWQeP3-AkJ-30" value="stmdpcore{ENV}ca" style="image;aspect=fixed;html=1;points=[];align=center;fontSize=12;image=img/lib/azure2/storage/Storage_Accounts.svg;" vertex="1" parent="StiFzKHxYK-PWpklk6Yv-31">
          <mxGeometry y="24.462413793103465" width="73.9928057553957" height="59.19424460431656" as="geometry" />
        </mxCell>
        <mxCell id="StiFzKHxYK-PWpklk6Yv-30" value="&lt;span style=&quot;color: rgba(0, 0, 0, 0); font-family: monospace; font-size: 0px; text-align: start; background-color: rgb(251, 251, 251);&quot;&gt;%3CmxGraphModel%3E%3Croot%3E%3CmxCell%20id%3D%220%22%2F%3E%3CmxCell%20id%3D%221%22%20parent%3D%220%22%2F%3E%3CmxCell%20id%3D%222%22%20value%3D%22%22%20style%3D%22group%22%20vertex%3D%221%22%20connectable%3D%220%22%20parent%3D%221%22%3E%3CmxGeometry%20x%3D%22690%22%20y%3D%221250%22%20width%3D%22311.47540983606564%22%20height%3D%22540%22%20as%3D%22geometry%22%2F%3E%3C%2FmxCell%3E%3CmxCell%20id%3D%223%22%20value%3D%22%22%20style%3D%22sketch%3D0%3Bpoints%3D%5B%5B0%2C0%2C0%5D%2C%5B0.25%2C0%2C0%5D%2C%5B0.5%2C0%2C0%5D%2C%5B0.75%2C0%2C0%5D%2C%5B1%2C0%2C0%5D%2C%5B0%2C1%2C0%5D%2C%5B0.25%2C1%2C0%5D%2C%5B0.5%2C1%2C0%5D%2C%5B0.75%2C1%2C0%5D%2C%5B1%2C1%2C0%5D%2C%5B0%2C0.25%2C0%5D%2C%5B0%2C0.5%2C0%5D%2C%5B0%2C0.75%2C0%5D%2C%5B1%2C0.25%2C0%5D%2C%5B1%2C0.5%2C0%5D%2C%5B1%2C0.75%2C0%5D%5D%3BoutlineConnect%3D0%3BfontColor%3D%23232F3E%3BfillColor%3D%23ED7100%3BstrokeColor%3D%23ffffff%3Bdashed%3D0%3BverticalLabelPosition%3Dbottom%3BverticalAlign%3Dtop%3Balign%3Dcenter%3Bhtml%3D1%3BfontSize%3D12%3BfontStyle%3D0%3Baspect%3Dfixed%3Bshape%3Dmxgraph.aws4.resourceIcon%3BresIcon%3Dmxgraph.aws4.red_hat_openshift%3Bcontainer%3D0%3B%22%20vertex%3D%221%22%20parent%3D%222%22%3E%3CmxGeometry%20x%3D%2250%22%20y%3D%22-54.92244836398386%22%20width%3D%2227.040006458084548%22%20height%3D%2227.040006458084548%22%20as%3D%22geometry%22%2F%3E%3C%2FmxCell%3E%3CmxCell%20id%3D%224%22%20value%3D%22%22%20style%3D%22whiteSpace%3Dwrap%3Bhtml%3D1%3Baspect%3Dfixed%3Bmovable%3D1%3Bresizable%3D1%3Brotatable%3D1%3Bdeletable%3D1%3Beditable%3D1%3Blocked%3D0%3Bconnectable%3D1%3B%22%20vertex%3D%221%22%20parent%3D%222%22%3E%3CmxGeometry%20x%3D%2272.1395263141734%22%20y%3D%22-21.168227848101424%22%20width%3D%2272.45901639344262%22%20height%3D%2272.45901639344262%22%20as%3D%22geometry%22%2F%3E%3C%2FmxCell%3E%3CmxCell%20id%3D%225%22%20value%3D%22ON-PREM%20PG13%22%20style%3D%22image%3Baspect%3Dfixed%3Bhtml%3D1%3Bpoints%3D%5B%5D%3Balign%3Dcenter%3BfontSize%3D12%3Bimage%3Dimg%2Flib%2Fazure2%2Fdatabases%2FAzure_Database_PostgreSQL_Server.svg%3B%22%20vertex%3D%221%22%20parent%3D%222%22%3E%3CmxGeometry%20x%3D%22101.14954609860644%22%20y%3D%2217.86392405063276%22%20width%3D%2210.793516091376784%22%20height%3D%2214.391354788502378%22%20as%3D%22geometry%22%2F%3E%3C%2FmxCell%3E%3C%2Froot%3E%3C%2FmxGraphModel%3E&lt;/span&gt;" style="image;aspect=fixed;html=1;points=[];align=center;fontSize=12;image=img/lib/azure2/other/Private_Endpoints.svg;" vertex="1" parent="StiFzKHxYK-PWpklk6Yv-31">
          <mxGeometry x="59.99618705035965" width="39.18" height="37.27" as="geometry" />
        </mxCell>
        <mxCell id="StiFzKHxYK-PWpklk6Yv-75" style="edgeStyle=orthogonalEdgeStyle;rounded=0;orthogonalLoop=1;jettySize=auto;html=1;entryX=-0.085;entryY=0.425;entryDx=0;entryDy=0;entryPerimeter=0;" edge="1" parent="e6AIboaMO65mBt60haEZ-2" source="zENB75zG4bbWQeP3-AkJ-24" target="zENB75zG4bbWQeP3-AkJ-30">
          <mxGeometry relative="1" as="geometry" />
        </mxCell>
        <mxCell id="StiFzKHxYK-PWpklk6Yv-79" value="" style="image;sketch=0;aspect=fixed;html=1;points=[];align=center;fontSize=12;image=img/lib/mscae/NetworkInterfaceCard.svg;" vertex="1" parent="e6AIboaMO65mBt60haEZ-2">
          <mxGeometry x="189.5302158273381" y="38.28034482758619" width="25.63" height="29.13" as="geometry" />
        </mxCell>
        <mxCell id="e6AIboaMO65mBt60haEZ-46" value="" style="container=0;collapsible=0;expand=0;recursiveResize=0;html=1;whiteSpace=wrap;image=;strokeColor=#FA4D56;fillColor=none;dashed=1;dashPattern=1 3;strokeWidth=2;fontStyle=1" parent="aoSBfK80zF7dZtvipX5W-8" vertex="1">
          <mxGeometry x="30.467625899280577" y="220.13793103448273" width="1149.064748201439" height="155.9310344827586" as="geometry" />
        </mxCell>
        <mxCell id="e6AIboaMO65mBt60haEZ-47" value="rg-mdp-data-{ENV}-ca" style="shape=rect;fillColor=none;aspect=fixed;resizable=0;labelPosition=right;verticalLabelPosition=middle;align=left;verticalAlign=middle;strokeColor=none;part=1;spacingLeft=5;fontSize=14;" parent="e6AIboaMO65mBt60haEZ-46" vertex="1">
          <mxGeometry width="48" height="48" relative="1" as="geometry" />
        </mxCell>
        <mxCell id="e6AIboaMO65mBt60haEZ-48" value="" style="fillColor=#FA4D56;shape=mxgraph.ibm_cloud.group--resource;strokeColor=none;dashed=0;outlineConnect=0;html=1;labelPosition=center;verticalLabelPosition=bottom;verticalAlign=top;part=1;movable=0;resizable=0;rotatable=0;" parent="e6AIboaMO65mBt60haEZ-47" vertex="1">
          <mxGeometry width="24" height="24" relative="1" as="geometry">
            <mxPoint x="12" y="12" as="offset" />
          </mxGeometry>
        </mxCell>
        <mxCell id="zENB75zG4bbWQeP3-AkJ-28" value="vm-mdp-shir-{ENV}-ca" style="image;aspect=fixed;html=1;points=[];align=center;fontSize=12;image=img/lib/azure2/compute/Virtual_Machine.svg;" vertex="1" parent="e6AIboaMO65mBt60haEZ-46">
          <mxGeometry x="49.5354676258994" y="58.74000000000001" width="68.76978417266189" height="63.79050359712231" as="geometry" />
        </mxCell>
        <mxCell id="StiFzKHxYK-PWpklk6Yv-25" value="&lt;span style=&quot;color: rgba(0, 0, 0, 0); font-family: monospace; font-size: 0px; text-align: start; background-color: rgb(251, 251, 251);&quot;&gt;%3CmxGraphModel%3E%3Croot%3E%3CmxCell%20id%3D%220%22%2F%3E%3CmxCell%20id%3D%221%22%20parent%3D%220%22%2F%3E%3CmxCell%20id%3D%222%22%20value%3D%22%22%20style%3D%22group%22%20vertex%3D%221%22%20connectable%3D%220%22%20parent%3D%221%22%3E%3CmxGeometry%20x%3D%22690%22%20y%3D%221250%22%20width%3D%22311.47540983606564%22%20height%3D%22540%22%20as%3D%22geometry%22%2F%3E%3C%2FmxCell%3E%3CmxCell%20id%3D%223%22%20value%3D%22%22%20style%3D%22sketch%3D0%3Bpoints%3D%5B%5B0%2C0%2C0%5D%2C%5B0.25%2C0%2C0%5D%2C%5B0.5%2C0%2C0%5D%2C%5B0.75%2C0%2C0%5D%2C%5B1%2C0%2C0%5D%2C%5B0%2C1%2C0%5D%2C%5B0.25%2C1%2C0%5D%2C%5B0.5%2C1%2C0%5D%2C%5B0.75%2C1%2C0%5D%2C%5B1%2C1%2C0%5D%2C%5B0%2C0.25%2C0%5D%2C%5B0%2C0.5%2C0%5D%2C%5B0%2C0.75%2C0%5D%2C%5B1%2C0.25%2C0%5D%2C%5B1%2C0.5%2C0%5D%2C%5B1%2C0.75%2C0%5D%5D%3BoutlineConnect%3D0%3BfontColor%3D%23232F3E%3BfillColor%3D%23ED7100%3BstrokeColor%3D%23ffffff%3Bdashed%3D0%3BverticalLabelPosition%3Dbottom%3BverticalAlign%3Dtop%3Balign%3Dcenter%3Bhtml%3D1%3BfontSize%3D12%3BfontStyle%3D0%3Baspect%3Dfixed%3Bshape%3Dmxgraph.aws4.resourceIcon%3BresIcon%3Dmxgraph.aws4.red_hat_openshift%3Bcontainer%3D0%3B%22%20vertex%3D%221%22%20parent%3D%222%22%3E%3CmxGeometry%20x%3D%2250%22%20y%3D%22-54.92244836398386%22%20width%3D%2227.040006458084548%22%20height%3D%2227.040006458084548%22%20as%3D%22geometry%22%2F%3E%3C%2FmxCell%3E%3CmxCell%20id%3D%224%22%20value%3D%22%22%20style%3D%22whiteSpace%3Dwrap%3Bhtml%3D1%3Baspect%3Dfixed%3Bmovable%3D1%3Bresizable%3D1%3Brotatable%3D1%3Bdeletable%3D1%3Beditable%3D1%3Blocked%3D0%3Bconnectable%3D1%3B%22%20vertex%3D%221%22%20parent%3D%222%22%3E%3CmxGeometry%20x%3D%2272.1395263141734%22%20y%3D%22-21.168227848101424%22%20width%3D%2272.45901639344262%22%20height%3D%2272.45901639344262%22%20as%3D%22geometry%22%2F%3E%3C%2FmxCell%3E%3CmxCell%20id%3D%225%22%20value%3D%22ON-PREM%20PG13%22%20style%3D%22image%3Baspect%3Dfixed%3Bhtml%3D1%3Bpoints%3D%5B%5D%3Balign%3Dcenter%3BfontSize%3D12%3Bimage%3Dimg%2Flib%2Fazure2%2Fdatabases%2FAzure_Database_PostgreSQL_Server.svg%3B%22%20vertex%3D%221%22%20parent%3D%222%22%3E%3CmxGeometry%20x%3D%22101.14954609860644%22%20y%3D%2217.86392405063276%22%20width%3D%2210.793516091376784%22%20height%3D%2214.391354788502378%22%20as%3D%22geometry%22%2F%3E%3C%2FmxCell%3E%3C%2Froot%3E%3C%2FmxGraphModel%3E&lt;/span&gt;" style="image;aspect=fixed;html=1;points=[];align=center;fontSize=12;image=img/lib/azure2/other/Private_Endpoints.svg;" vertex="1" parent="e6AIboaMO65mBt60haEZ-46">
          <mxGeometry x="89.53237410071938" y="37.19206896551731" width="39.18" height="37.27" as="geometry" />
        </mxCell>
        <mxCell id="StiFzKHxYK-PWpklk6Yv-27" value="" style="group" vertex="1" connectable="0" parent="e6AIboaMO65mBt60haEZ-46">
          <mxGeometry x="1058.5312949640288" y="27.19206896551728" width="69.18107913669053" height="89.79907219052339" as="geometry" />
        </mxCell>
        <mxCell id="StiFzKHxYK-PWpklk6Yv-24" value="&lt;span style=&quot;color: rgba(0, 0, 0, 0); font-family: monospace; font-size: 0px; text-align: start; background-color: rgb(251, 251, 251);&quot;&gt;%3CmxGraphModel%3E%3Croot%3E%3CmxCell%20id%3D%220%22%2F%3E%3CmxCell%20id%3D%221%22%20parent%3D%220%22%2F%3E%3CmxCell%20id%3D%222%22%20value%3D%22%22%20style%3D%22group%22%20vertex%3D%221%22%20connectable%3D%220%22%20parent%3D%221%22%3E%3CmxGeometry%20x%3D%22690%22%20y%3D%221250%22%20width%3D%22311.47540983606564%22%20height%3D%22540%22%20as%3D%22geometry%22%2F%3E%3C%2FmxCell%3E%3CmxCell%20id%3D%223%22%20value%3D%22%22%20style%3D%22sketch%3D0%3Bpoints%3D%5B%5B0%2C0%2C0%5D%2C%5B0.25%2C0%2C0%5D%2C%5B0.5%2C0%2C0%5D%2C%5B0.75%2C0%2C0%5D%2C%5B1%2C0%2C0%5D%2C%5B0%2C1%2C0%5D%2C%5B0.25%2C1%2C0%5D%2C%5B0.5%2C1%2C0%5D%2C%5B0.75%2C1%2C0%5D%2C%5B1%2C1%2C0%5D%2C%5B0%2C0.25%2C0%5D%2C%5B0%2C0.5%2C0%5D%2C%5B0%2C0.75%2C0%5D%2C%5B1%2C0.25%2C0%5D%2C%5B1%2C0.5%2C0%5D%2C%5B1%2C0.75%2C0%5D%5D%3BoutlineConnect%3D0%3BfontColor%3D%23232F3E%3BfillColor%3D%23ED7100%3BstrokeColor%3D%23ffffff%3Bdashed%3D0%3BverticalLabelPosition%3Dbottom%3BverticalAlign%3Dtop%3Balign%3Dcenter%3Bhtml%3D1%3BfontSize%3D12%3BfontStyle%3D0%3Baspect%3Dfixed%3Bshape%3Dmxgraph.aws4.resourceIcon%3BresIcon%3Dmxgraph.aws4.red_hat_openshift%3Bcontainer%3D0%3B%22%20vertex%3D%221%22%20parent%3D%222%22%3E%3CmxGeometry%20x%3D%2250%22%20y%3D%22-54.92244836398386%22%20width%3D%2227.040006458084548%22%20height%3D%2227.040006458084548%22%20as%3D%22geometry%22%2F%3E%3C%2FmxCell%3E%3CmxCell%20id%3D%224%22%20value%3D%22%22%20style%3D%22whiteSpace%3Dwrap%3Bhtml%3D1%3Baspect%3Dfixed%3Bmovable%3D1%3Bresizable%3D1%3Brotatable%3D1%3Bdeletable%3D1%3Beditable%3D1%3Blocked%3D0%3Bconnectable%3D1%3B%22%20vertex%3D%221%22%20parent%3D%222%22%3E%3CmxGeometry%20x%3D%2272.1395263141734%22%20y%3D%22-21.168227848101424%22%20width%3D%2272.45901639344262%22%20height%3D%2272.45901639344262%22%20as%3D%22geometry%22%2F%3E%3C%2FmxCell%3E%3CmxCell%20id%3D%225%22%20value%3D%22ON-PREM%20PG13%22%20style%3D%22image%3Baspect%3Dfixed%3Bhtml%3D1%3Bpoints%3D%5B%5D%3Balign%3Dcenter%3BfontSize%3D12%3Bimage%3Dimg%2Flib%2Fazure2%2Fdatabases%2FAzure_Database_PostgreSQL_Server.svg%3B%22%20vertex%3D%221%22%20parent%3D%222%22%3E%3CmxGeometry%20x%3D%22101.14954609860644%22%20y%3D%2217.86392405063276%22%20width%3D%2210.793516091376784%22%20height%3D%2214.391354788502378%22%20as%3D%22geometry%22%2F%3E%3C%2FmxCell%3E%3C%2Froot%3E%3C%2FmxGraphModel%3E&lt;/span&gt;" style="image;aspect=fixed;html=1;points=[];align=center;fontSize=12;image=img/lib/azure2/other/Private_Endpoints.svg;" vertex="1" parent="StiFzKHxYK-PWpklk6Yv-27">
          <mxGeometry x="30.001079136690578" width="39.18" height="37.27" as="geometry" />
        </mxCell>
        <mxCell id="zENB75zG4bbWQeP3-AkJ-29" value="sqlsrv-mdp-{ENV}-ca" style="image;aspect=fixed;html=1;points=[];align=center;fontSize=12;image=img/lib/azure2/databases/SQL_Server.svg;" vertex="1" parent="StiFzKHxYK-PWpklk6Yv-27">
          <mxGeometry y="30.604827586206824" width="59.19424460431656" height="59.19424460431656" as="geometry" />
        </mxCell>
        <mxCell id="StiFzKHxYK-PWpklk6Yv-43" style="edgeStyle=orthogonalEdgeStyle;rounded=0;orthogonalLoop=1;jettySize=auto;html=1;" edge="1" parent="e6AIboaMO65mBt60haEZ-46" source="aoSBfK80zF7dZtvipX5W-6" target="zENB75zG4bbWQeP3-AkJ-4">
          <mxGeometry relative="1" as="geometry" />
        </mxCell>
        <mxCell id="aoSBfK80zF7dZtvipX5W-6" value="sqlsrv-mdp-{ENV}-ca/sqldb-mdp-DWH-{ENV}-ca" style="verticalLabelPosition=bottom;html=1;verticalAlign=top;align=center;strokeColor=none;fillColor=#00BEF2;shape=mxgraph.azure.sql_database;" vertex="1" parent="e6AIboaMO65mBt60haEZ-46">
          <mxGeometry x="879.5344604316547" y="64.20206896551724" width="32.643884892086334" height="45.86206896551724" as="geometry" />
        </mxCell>
        <mxCell id="StiFzKHxYK-PWpklk6Yv-5" style="edgeStyle=orthogonalEdgeStyle;rounded=0;orthogonalLoop=1;jettySize=auto;html=1;entryX=1;entryY=0.5;entryDx=0;entryDy=0;entryPerimeter=0;" edge="1" parent="e6AIboaMO65mBt60haEZ-46" source="zENB75zG4bbWQeP3-AkJ-29" target="aoSBfK80zF7dZtvipX5W-6">
          <mxGeometry relative="1" as="geometry" />
        </mxCell>
        <mxCell id="StiFzKHxYK-PWpklk6Yv-26" value="" style="group" vertex="1" connectable="0" parent="e6AIboaMO65mBt60haEZ-46">
          <mxGeometry x="589.5323741007194" y="27.932068965517267" width="99.63812949640294" height="94.5982188042669" as="geometry" />
        </mxCell>
        <mxCell id="StiFzKHxYK-PWpklk6Yv-38" value="" style="group" vertex="1" connectable="0" parent="StiFzKHxYK-PWpklk6Yv-26">
          <mxGeometry width="84.63812949640291" height="94.5982188042669" as="geometry" />
        </mxCell>
        <mxCell id="zENB75zG4bbWQeP3-AkJ-4" value="adf-mdp-{ENV}-ca" style="shape=image;verticalLabelPosition=bottom;labelBackgroundColor=#ffffff;verticalAlign=top;aspect=fixed;imageAspect=0;image=data:image/svg+xml,PHN2ZyB4bWxuczpkYz0iaHR0cDovL3B1cmwub3JnL2RjL2VsZW1lbnRzLzEuMS8iIHhtbG5zOmNjPSJodHRwOi8vY3JlYXRpdmVjb21tb25zLm9yZy9ucyMiIHhtbG5zOnJkZj0iaHR0cDovL3d3dy53My5vcmcvMTk5OS8wMi8yMi1yZGYtc3ludGF4LW5zIyIgeG1sbnM6c3ZnPSJodHRwOi8vd3d3LnczLm9yZy8yMDAwL3N2ZyIgeG1sbnM9Imh0dHA6Ly93d3cudzMub3JnLzIwMDAvc3ZnIiB4bWxuczpzb2RpcG9kaT0iaHR0cDovL3NvZGlwb2RpLnNvdXJjZWZvcmdlLm5ldC9EVEQvc29kaXBvZGktMC5kdGQiIHhtbG5zOmlua3NjYXBlPSJodHRwOi8vd3d3Lmlua3NjYXBlLm9yZy9uYW1lc3BhY2VzL2lua3NjYXBlIiB2ZXJzaW9uPSIxLjEiIGlkPSJzdmc1Njg2MSIgaW5rc2NhcGU6dmVyc2lvbj0iMC45Mi4zICgyNDA1NTQ2LCAyMDE4LTAzLTExKSIgc29kaXBvZGk6ZG9jbmFtZT0iYXp1cmVfZGF0YV9mYWN0b3J5LnN2ZyIgeD0iMHB4IiB5PSIwcHgiIHZpZXdCb3g9IjAgMCAxMDAuMSA5OS45IiB4bWw6c3BhY2U9InByZXNlcnZlIiB3aWR0aD0iMTAwLjEiIGhlaWdodD0iOTkuOTAwMDAyIj48bWV0YWRhdGEgaWQ9Im1ldGFkYXRhNjgyMyI+PHJkZjpSREY+PGNjOldvcmsgcmRmOmFib3V0PSIiPjxkYzpmb3JtYXQ+aW1hZ2Uvc3ZnK3htbDwvZGM6Zm9ybWF0PjxkYzp0eXBlIHJkZjpyZXNvdXJjZT0iaHR0cDovL3B1cmwub3JnL2RjL2RjbWl0eXBlL1N0aWxsSW1hZ2UiLz48ZGM6dGl0bGUvPjwvY2M6V29yaz48L3JkZjpSREY+PC9tZXRhZGF0YT48ZGVmcyBpZD0iZGVmczY4MjEiLz4mI3hhOzxmaWx0ZXIgaWQ9ImZpbHRlcl8yIj4mI3hhOwk8ZmVHYXVzc2lhbkJsdXIgaWQ9ImZlR2F1c3NpYW5CbHVyNTY4MTAiIHN0ZERldmlhdGlvbj0iMiIvPiYjeGE7PC9maWx0ZXI+JiN4YTs8c29kaXBvZGk6bmFtZWR2aWV3IGJvcmRlcmNvbG9yPSIjNjY2NjY2IiBib3JkZXJvcGFjaXR5PSIxIiBmaXQtbWFyZ2luLWJvdHRvbT0iMCIgZml0LW1hcmdpbi1sZWZ0PSIwIiBmaXQtbWFyZ2luLXJpZ2h0PSIwIiBmaXQtbWFyZ2luLXRvcD0iMCIgZ3JpZHRvbGVyYW5jZT0iMTAiIGd1aWRldG9sZXJhbmNlPSIxMCIgaWQ9Im5hbWVkdmlldzU2ODYzIiBpbmtzY2FwZTpjdXJyZW50LWxheWVyPSJzdmc1Njg2MSIgaW5rc2NhcGU6Y3g9Ii0yMi41MTIwNzIiIGlua3NjYXBlOmN5PSI1Ni44MTcyNzkiIGlua3NjYXBlOnBhZ2VvcGFjaXR5PSIwIiBpbmtzY2FwZTpwYWdlc2hhZG93PSIyIiBpbmtzY2FwZTp3aW5kb3ctaGVpZ2h0PSIxMDE3IiBpbmtzY2FwZTp3aW5kb3ctbWF4aW1pemVkPSIxIiBpbmtzY2FwZTp3aW5kb3ctd2lkdGg9IjE5MjAiIGlua3NjYXBlOndpbmRvdy14PSItOCIgaW5rc2NhcGU6d2luZG93LXk9Ii04IiBpbmtzY2FwZTp6b29tPSIzLjY5Njc5MDciIG9iamVjdHRvbGVyYW5jZT0iMTAiIHBhZ2Vjb2xvcj0iI2ZmZmZmZiIgc2hvd2dyaWQ9ImZhbHNlIj4mI3hhOwk8L3NvZGlwb2RpOm5hbWVkdmlldz4mI3hhOyYjeGE7PHBhdGggaWQ9InBhdGg1NjgyMyIgaW5rc2NhcGU6Y29ubmVjdG9yLWN1cnZhdHVyZT0iMCIgc3R5bGU9ImZpbGw6IzU5YjRkOSIgZD0iTSA5OS45LDU4Ljg2IFYgMzQuNjMgTCA3Mi40Nyw1OC40NiBoIC0wLjYgViAzNC42MyBMIDQ0LjQ0LDU4LjQ2IFYgOC42MSBDIDQ0LjQ0LDQuNCAzNS4wMywwLjIgMjIuNjIsMC4yIDEwLjIxLDAuMiAwLDQuMiAwLDguNjEgViA5OS45IEggMTAwLjEgWiBNIDIyLjYyLDEyLjYxIGMgLTkuMDEsMCAtMTYuMjEsLTIuMiAtMTYuMjEsLTQuNiAwLC0yLjQgNy4yLC00LjYxIDE2LjIxLC00LjYxIDkuMDEsMCAxNi4yMiwyLjAxIDE2LjIyLDQuNjEgLTAuMiwyLjQgLTcuNDEsNC42IC0xNi4yMiw0LjYgeiBNIDY5Ljg3LDgzLjY4IEggNTguODYgViA3Mi42NyBoIDExLjAxIHogbSAtMTkuNDIsMCBIIDM5LjQ0IFYgNzIuNjcgaCAxMS4wMSB6IG0gMjguMDMsMCBWIDcyLjY3IGggMTEuMDEgdiAxMS4wMSB6Ii8+JiN4YTsmI3hhOzxyZWN0IGlkPSJyZWN0NTY4MzEiIHg9IjAiIHk9IjguMDEwMDAwMiIgc3R5bGU9ImZpbGw6IzM5OTljNiIgd2lkdGg9IjIyLjIxOTk5OSIgaGVpZ2h0PSI5MS44ODk5OTkiLz4mI3hhOyYjeGE7PHBhdGggaWQ9InBhdGg1NjgzOSIgaW5rc2NhcGU6Y29ubmVjdG9yLWN1cnZhdHVyZT0iMCIgc3R5bGU9ImZpbGw6I2ZmZmZmZiIgZD0ibSA0NC4yNCw4LjAxIGMgMCw0LjQgLTEwLjAxLDguMDEgLTIyLjIyLDguMDEgQyA5LjgxLDE2LjAyIDAsMTIuNDEgMCw4LjAxIDAsMy42IDEwLjAxLDAgMjIuMjIsMCAzNC40MywwIDQ0LjI0LDMuNCA0NC4yNCw4LjAxIFoiLz4mI3hhOyYjeGE7PHBhdGggaWQ9InBhdGg1Njg0NyIgaW5rc2NhcGU6Y29ubmVjdG9yLWN1cnZhdHVyZT0iMCIgc3R5bGU9ImZpbGw6IzdmYmEwMCIgZD0ibSAzOS44Myw3LjQxIGMgMCwzIC03LjgsNS4yMSAtMTcuNjEsNS4yMSAtOS44MSwwIC0xNy42MiwtMi4yMSAtMTcuNjIsLTUuMjEgMCwtMyA3LjgxLC01LjIgMTcuNjIsLTUuMiA5LjgxLDAgMTcuNjEsMi40IDE3LjYxLDUuMiB6Ii8+JiN4YTsmI3hhOzxwYXRoIGlkPSJwYXRoNTY4NTUiIGlua3NjYXBlOmNvbm5lY3Rvci1jdXJ2YXR1cmU9IjAiIHN0eWxlPSJmaWxsOiNiOGQ0MzIiIGQ9Im0gMzYuMDMsMTAuNjEgYyAyLjQsLTAuOCAzLjYsLTIgMy42LC0zLjIxIDAsLTMgLTcuOCwtNS4yIC0xNy42MSwtNS4yIEMgMTIuMjEsMi4yIDQuNCw0LjYgNC40LDcuNCA0LjYsOC42MSA2LDkuODEgOC4yLDEwLjYxIGMgMy4yMSwtMS4yIDguMjEsLTIgMTQuMDIsLTIgNS42LDAgMTAuNjEsMC44IDEzLjgxLDIgeiIvPiYjeGE7PC9zdmc+;" vertex="1" parent="StiFzKHxYK-PWpklk6Yv-38">
          <mxGeometry x="14.99784172661873" y="24.957931034482726" width="69.64028776978418" height="69.64028776978418" as="geometry" />
        </mxCell>
        <mxCell id="aoSBfK80zF7dZtvipX5W-11" value="&lt;span style=&quot;color: rgba(0, 0, 0, 0); font-family: monospace; font-size: 0px; text-align: start; background-color: rgb(251, 251, 251);&quot;&gt;%3CmxGraphModel%3E%3Croot%3E%3CmxCell%20id%3D%220%22%2F%3E%3CmxCell%20id%3D%221%22%20parent%3D%220%22%2F%3E%3CmxCell%20id%3D%222%22%20value%3D%22%22%20style%3D%22group%22%20vertex%3D%221%22%20connectable%3D%220%22%20parent%3D%221%22%3E%3CmxGeometry%20x%3D%22690%22%20y%3D%221250%22%20width%3D%22311.47540983606564%22%20height%3D%22540%22%20as%3D%22geometry%22%2F%3E%3C%2FmxCell%3E%3CmxCell%20id%3D%223%22%20value%3D%22%22%20style%3D%22sketch%3D0%3Bpoints%3D%5B%5B0%2C0%2C0%5D%2C%5B0.25%2C0%2C0%5D%2C%5B0.5%2C0%2C0%5D%2C%5B0.75%2C0%2C0%5D%2C%5B1%2C0%2C0%5D%2C%5B0%2C1%2C0%5D%2C%5B0.25%2C1%2C0%5D%2C%5B0.5%2C1%2C0%5D%2C%5B0.75%2C1%2C0%5D%2C%5B1%2C1%2C0%5D%2C%5B0%2C0.25%2C0%5D%2C%5B0%2C0.5%2C0%5D%2C%5B0%2C0.75%2C0%5D%2C%5B1%2C0.25%2C0%5D%2C%5B1%2C0.5%2C0%5D%2C%5B1%2C0.75%2C0%5D%5D%3BoutlineConnect%3D0%3BfontColor%3D%23232F3E%3BfillColor%3D%23ED7100%3BstrokeColor%3D%23ffffff%3Bdashed%3D0%3BverticalLabelPosition%3Dbottom%3BverticalAlign%3Dtop%3Balign%3Dcenter%3Bhtml%3D1%3BfontSize%3D12%3BfontStyle%3D0%3Baspect%3Dfixed%3Bshape%3Dmxgraph.aws4.resourceIcon%3BresIcon%3Dmxgraph.aws4.red_hat_openshift%3Bcontainer%3D0%3B%22%20vertex%3D%221%22%20parent%3D%222%22%3E%3CmxGeometry%20x%3D%2250%22%20y%3D%22-54.92244836398386%22%20width%3D%2227.040006458084548%22%20height%3D%2227.040006458084548%22%20as%3D%22geometry%22%2F%3E%3C%2FmxCell%3E%3CmxCell%20id%3D%224%22%20value%3D%22%22%20style%3D%22whiteSpace%3Dwrap%3Bhtml%3D1%3Baspect%3Dfixed%3Bmovable%3D1%3Bresizable%3D1%3Brotatable%3D1%3Bdeletable%3D1%3Beditable%3D1%3Blocked%3D0%3Bconnectable%3D1%3B%22%20vertex%3D%221%22%20parent%3D%222%22%3E%3CmxGeometry%20x%3D%2272.1395263141734%22%20y%3D%22-21.168227848101424%22%20width%3D%2272.45901639344262%22%20height%3D%2272.45901639344262%22%20as%3D%22geometry%22%2F%3E%3C%2FmxCell%3E%3CmxCell%20id%3D%225%22%20value%3D%22ON-PREM%20PG13%22%20style%3D%22image%3Baspect%3Dfixed%3Bhtml%3D1%3Bpoints%3D%5B%5D%3Balign%3Dcenter%3BfontSize%3D12%3Bimage%3Dimg%2Flib%2Fazure2%2Fdatabases%2FAzure_Database_PostgreSQL_Server.svg%3B%22%20vertex%3D%221%22%20parent%3D%222%22%3E%3CmxGeometry%20x%3D%22101.14954609860644%22%20y%3D%2217.86392405063276%22%20width%3D%2210.793516091376784%22%20height%3D%2214.391354788502378%22%20as%3D%22geometry%22%2F%3E%3C%2FmxCell%3E%3C%2Froot%3E%3C%2FmxGraphModel%3E&lt;/span&gt;" style="image;aspect=fixed;html=1;points=[];align=center;fontSize=12;image=img/lib/azure2/other/Private_Endpoints.svg;" vertex="1" parent="StiFzKHxYK-PWpklk6Yv-38">
          <mxGeometry width="39.18" height="37.27" as="geometry" />
        </mxCell>
        <mxCell id="StiFzKHxYK-PWpklk6Yv-49" style="edgeStyle=orthogonalEdgeStyle;rounded=0;orthogonalLoop=1;jettySize=auto;html=1;entryX=1.046;entryY=0.546;entryDx=0;entryDy=0;entryPerimeter=0;" edge="1" parent="e6AIboaMO65mBt60haEZ-46" source="zENB75zG4bbWQeP3-AkJ-4" target="e6AIboaMO65mBt60haEZ-55">
          <mxGeometry relative="1" as="geometry" />
        </mxCell>
        <mxCell id="StiFzKHxYK-PWpklk6Yv-74" value="" style="group" vertex="1" connectable="0" parent="e6AIboaMO65mBt60haEZ-46">
          <mxGeometry x="279.5323741007194" y="30" width="106.7376258992806" height="86.99206896551728" as="geometry" />
        </mxCell>
        <mxCell id="e6AIboaMO65mBt60haEZ-55" value="stmdpdatarepository{ENV}ca" style="image;aspect=fixed;html=1;points=[];align=center;fontSize=12;image=img/lib/azure2/storage/Storage_Accounts.svg;" parent="StiFzKHxYK-PWpklk6Yv-74" vertex="1">
          <mxGeometry y="20.66206896551728" width="82.91" height="66.33" as="geometry" />
        </mxCell>
        <mxCell id="StiFzKHxYK-PWpklk6Yv-73" value="" style="image;aspect=fixed;html=1;points=[];align=center;fontSize=12;image=img/lib/azure2/other/Private_Endpoints.svg;" vertex="1" parent="StiFzKHxYK-PWpklk6Yv-74">
          <mxGeometry x="59.99762589928059" width="46.74" height="44.46" as="geometry" />
        </mxCell>
        <mxCell id="StiFzKHxYK-PWpklk6Yv-82" value="" style="outlineConnect=0;dashed=0;verticalLabelPosition=bottom;verticalAlign=top;align=center;html=1;shape=mxgraph.aws3.disk;fillColor=#7D7C7C;gradientColor=none;" vertex="1" parent="e6AIboaMO65mBt60haEZ-46">
          <mxGeometry x="39.53237410071938" y="92.48758620689657" width="30" height="24.5" as="geometry" />
        </mxCell>
        <mxCell id="t-2oyG9lsQ-p540-M9Bd-1" style="edgeStyle=orthogonalEdgeStyle;rounded=0;orthogonalLoop=1;jettySize=auto;html=1;exitX=0.5;exitY=0;exitDx=0;exitDy=0;entryX=1.018;entryY=0.566;entryDx=0;entryDy=0;entryPerimeter=0;" edge="1" parent="e6AIboaMO65mBt60haEZ-46" source="zENB75zG4bbWQeP3-AkJ-4" target="zENB75zG4bbWQeP3-AkJ-28">
          <mxGeometry relative="1" as="geometry">
            <Array as="points">
              <mxPoint x="639" y="15" />
              <mxPoint x="220" y="15" />
              <mxPoint x="220" y="95" />
            </Array>
          </mxGeometry>
        </mxCell>
        <mxCell id="e6AIboaMO65mBt60haEZ-49" value="" style="container=0;collapsible=0;expand=0;recursiveResize=0;html=1;whiteSpace=wrap;image=;strokeColor=#FA4D56;fillColor=none;dashed=1;dashPattern=1 3;strokeWidth=2" parent="aoSBfK80zF7dZtvipX5W-8" vertex="1">
          <mxGeometry x="30.467625899280577" y="403.5862068965517" width="1149.064748201439" height="155.9310344827586" as="geometry" />
        </mxCell>
        <mxCell id="e6AIboaMO65mBt60haEZ-50" value="rg-mdp-security-{ENV}-ca" style="shape=rect;fillColor=none;aspect=fixed;resizable=0;labelPosition=right;verticalLabelPosition=middle;align=left;verticalAlign=middle;strokeColor=none;part=1;spacingLeft=5;fontSize=14;" parent="e6AIboaMO65mBt60haEZ-49" vertex="1">
          <mxGeometry width="48" height="48" relative="1" as="geometry" />
        </mxCell>
        <mxCell id="e6AIboaMO65mBt60haEZ-51" value="" style="fillColor=#FA4D56;shape=mxgraph.ibm_cloud.group--resource;strokeColor=none;dashed=0;outlineConnect=0;html=1;labelPosition=center;verticalLabelPosition=bottom;verticalAlign=top;part=1;movable=0;resizable=0;rotatable=0;" parent="e6AIboaMO65mBt60haEZ-50" vertex="1">
          <mxGeometry width="24" height="24" relative="1" as="geometry">
            <mxPoint x="12" y="12" as="offset" />
          </mxGeometry>
        </mxCell>
        <mxCell id="StiFzKHxYK-PWpklk6Yv-55" value="" style="group" vertex="1" connectable="0" parent="e6AIboaMO65mBt60haEZ-49">
          <mxGeometry x="225.52999999999997" y="60.324482758620675" width="212.75381294964035" height="59.19424460431655" as="geometry" />
        </mxCell>
        <mxCell id="StiFzKHxYK-PWpklk6Yv-39" value="sn-mdp-public-{ENV}-ca" style="image;aspect=fixed;html=1;points=[];align=center;fontSize=12;image=img/lib/azure2/networking/Subnet.svg;" vertex="1" parent="StiFzKHxYK-PWpklk6Yv-55">
          <mxGeometry y="5.285517241379324" width="81.19" height="48.62" as="geometry" />
        </mxCell>
        <mxCell id="zENB75zG4bbWQeP3-AkJ-26" value="nsg-mdp-public-{ENV}-ca" style="image;aspect=fixed;html=1;points=[];align=center;fontSize=12;image=img/lib/azure2/networking/Network_Security_Groups.svg;" vertex="1" parent="StiFzKHxYK-PWpklk6Yv-55">
          <mxGeometry x="164.00561151079143" width="48.74820143884894" height="59.19424460431656" as="geometry" />
        </mxCell>
        <mxCell id="StiFzKHxYK-PWpklk6Yv-54" style="edgeStyle=orthogonalEdgeStyle;rounded=0;orthogonalLoop=1;jettySize=auto;html=1;" edge="1" parent="StiFzKHxYK-PWpklk6Yv-55" source="StiFzKHxYK-PWpklk6Yv-39" target="zENB75zG4bbWQeP3-AkJ-26">
          <mxGeometry relative="1" as="geometry" />
        </mxCell>
        <mxCell id="StiFzKHxYK-PWpklk6Yv-53" value="nsg-mdp-private-{ENV}-ca" style="image;aspect=fixed;html=1;points=[];align=center;fontSize=12;image=img/lib/azure2/networking/Network_Security_Groups.svg;" vertex="1" parent="e6AIboaMO65mBt60haEZ-49">
          <mxGeometry x="719.5356115107913" y="55.03448275862064" width="48.74820143884894" height="59.19424460431656" as="geometry" />
        </mxCell>
        <mxCell id="StiFzKHxYK-PWpklk6Yv-72" value="" style="group" vertex="1" connectable="0" parent="e6AIboaMO65mBt60haEZ-49">
          <mxGeometry x="43.525179856115116" y="41.38" width="84.42482014388489" height="72.84872736293724" as="geometry" />
        </mxCell>
        <mxCell id="e6AIboaMO65mBt60haEZ-59" value="kv-mdp-main-{ENV}-ca" style="image;aspect=fixed;html=1;points=[];align=center;fontSize=12;image=img/lib/azure2/security/Key_Vaults.svg;" parent="StiFzKHxYK-PWpklk6Yv-72" vertex="1">
          <mxGeometry y="13.65448275862068" width="59.19424460431656" height="59.19424460431656" as="geometry" />
        </mxCell>
        <mxCell id="StiFzKHxYK-PWpklk6Yv-71" value="" style="image;aspect=fixed;html=1;points=[];align=center;fontSize=12;image=img/lib/azure2/other/Private_Endpoints.svg;" vertex="1" parent="StiFzKHxYK-PWpklk6Yv-72">
          <mxGeometry x="36.004820143884885" width="48.42" height="46.06" as="geometry" />
        </mxCell>
        <mxCell id="zENB75zG4bbWQeP3-AkJ-1" value="" style="container=0;collapsible=0;expand=0;recursiveResize=0;html=1;whiteSpace=wrap;image=;strokeColor=#FA4D56;fillColor=none;dashed=1;dashPattern=1 3;strokeWidth=2" vertex="1" parent="aoSBfK80zF7dZtvipX5W-8">
          <mxGeometry x="30.467625899280577" y="587.0344827586207" width="1149.064748201439" height="155.9310344827586" as="geometry" />
        </mxCell>
        <mxCell id="zENB75zG4bbWQeP3-AkJ-2" value="rg-mdp-unmanaged-{ENV}-ca" style="shape=rect;fillColor=none;aspect=fixed;resizable=0;labelPosition=right;verticalLabelPosition=middle;align=left;verticalAlign=middle;strokeColor=none;part=1;spacingLeft=5;fontSize=14;" vertex="1" parent="zENB75zG4bbWQeP3-AkJ-1">
          <mxGeometry width="48" height="48" relative="1" as="geometry" />
        </mxCell>
        <mxCell id="zENB75zG4bbWQeP3-AkJ-3" value="" style="fillColor=#FA4D56;shape=mxgraph.ibm_cloud.group--resource;strokeColor=none;dashed=0;outlineConnect=0;html=1;labelPosition=center;verticalLabelPosition=bottom;verticalAlign=top;part=1;movable=0;resizable=0;rotatable=0;" vertex="1" parent="zENB75zG4bbWQeP3-AkJ-2">
          <mxGeometry width="24" height="24" relative="1" as="geometry">
            <mxPoint x="12" y="12" as="offset" />
          </mxGeometry>
        </mxCell>
        <mxCell id="zENB75zG4bbWQeP3-AkJ-6" value="stgmdptfstate{ENV}ca" style="image;aspect=fixed;html=1;points=[];align=center;fontSize=12;image=img/lib/azure2/storage/Storage_Accounts.svg;" vertex="1" parent="zENB75zG4bbWQeP3-AkJ-1">
          <mxGeometry x="329.5309352517986" y="57.929310344827584" width="73.9928057553957" height="59.19424460431656" as="geometry" />
        </mxCell>
        <mxCell id="StiFzKHxYK-PWpklk6Yv-48" style="edgeStyle=orthogonalEdgeStyle;rounded=0;orthogonalLoop=1;jettySize=auto;html=1;entryX=0.456;entryY=0;entryDx=0;entryDy=0;entryPerimeter=0;" edge="1" parent="zENB75zG4bbWQeP3-AkJ-1" source="e6AIboaMO65mBt60haEZ-65" target="zENB75zG4bbWQeP3-AkJ-6">
          <mxGeometry relative="1" as="geometry">
            <Array as="points">
              <mxPoint x="84" y="38" />
              <mxPoint x="363" y="38" />
            </Array>
          </mxGeometry>
        </mxCell>
        <mxCell id="StiFzKHxYK-PWpklk6Yv-68" value="" style="group" vertex="1" connectable="0" parent="zENB75zG4bbWQeP3-AkJ-1">
          <mxGeometry x="49.531582733813025" y="40" width="84.79841726618696" height="81.71677945919127" as="geometry" />
        </mxCell>
        <mxCell id="e6AIboaMO65mBt60haEZ-65" value="vm-mdp-runner-{ENV}-ca" style="image;aspect=fixed;html=1;points=[];align=center;fontSize=12;image=img/lib/azure2/compute/Virtual_Machine.svg;" parent="StiFzKHxYK-PWpklk6Yv-68" vertex="1">
          <mxGeometry y="17.926275862068962" width="68.76978417266189" height="63.79050359712231" as="geometry" />
        </mxCell>
        <mxCell id="StiFzKHxYK-PWpklk6Yv-67" value="" style="image;aspect=fixed;html=1;points=[];align=center;fontSize=12;image=img/lib/azure2/other/Private_Endpoints.svg;" vertex="1" parent="StiFzKHxYK-PWpklk6Yv-68">
          <mxGeometry x="39.998417266186976" width="44.8" height="42.61" as="geometry" />
        </mxCell>
        <mxCell id="StiFzKHxYK-PWpklk6Yv-83" value="" style="image;sketch=0;aspect=fixed;html=1;points=[];align=center;fontSize=12;image=img/lib/mscae/NetworkInterfaceCard.svg;" vertex="1" parent="StiFzKHxYK-PWpklk6Yv-68">
          <mxGeometry x="-10.001366906474914" y="-0.0044827586207247805" width="25.63" height="29.13" as="geometry" />
        </mxCell>
        <mxCell id="zENB75zG4bbWQeP3-AkJ-14" value="" style="container=0;collapsible=0;expand=0;recursiveResize=0;html=1;whiteSpace=wrap;image=;strokeColor=#FA4D56;fillColor=none;dashed=1;dashPattern=1 3;strokeWidth=2" vertex="1" parent="aoSBfK80zF7dZtvipX5W-8">
          <mxGeometry x="30.47" y="770.48" width="1149.06" height="179.52" as="geometry" />
        </mxCell>
        <mxCell id="zENB75zG4bbWQeP3-AkJ-15" value="ef74b0-{ENV}-networking" style="shape=rect;fillColor=none;aspect=fixed;resizable=0;labelPosition=right;verticalLabelPosition=middle;align=left;verticalAlign=middle;strokeColor=none;part=1;spacingLeft=5;fontSize=14;" vertex="1" parent="zENB75zG4bbWQeP3-AkJ-14">
          <mxGeometry width="48" height="48" relative="1" as="geometry" />
        </mxCell>
        <mxCell id="zENB75zG4bbWQeP3-AkJ-16" value="" style="fillColor=#FA4D56;shape=mxgraph.ibm_cloud.group--resource;strokeColor=none;dashed=0;outlineConnect=0;html=1;labelPosition=center;verticalLabelPosition=bottom;verticalAlign=top;part=1;movable=0;resizable=0;rotatable=0;" vertex="1" parent="zENB75zG4bbWQeP3-AkJ-15">
          <mxGeometry width="24" height="24" relative="1" as="geometry">
            <mxPoint x="12" y="12" as="offset" />
          </mxGeometry>
        </mxCell>
        <mxCell id="StiFzKHxYK-PWpklk6Yv-35" style="edgeStyle=orthogonalEdgeStyle;rounded=0;orthogonalLoop=1;jettySize=auto;html=1;" edge="1" parent="aoSBfK80zF7dZtvipX5W-8" source="zENB75zG4bbWQeP3-AkJ-25" target="zENB75zG4bbWQeP3-AkJ-24">
          <mxGeometry relative="1" as="geometry" />
        </mxCell>
        <mxCell id="StiFzKHxYK-PWpklk6Yv-36" style="edgeStyle=orthogonalEdgeStyle;rounded=0;orthogonalLoop=1;jettySize=auto;html=1;" edge="1" parent="aoSBfK80zF7dZtvipX5W-8" source="zENB75zG4bbWQeP3-AkJ-25" target="e6AIboaMO65mBt60haEZ-65">
          <mxGeometry relative="1" as="geometry">
            <Array as="points">
              <mxPoint x="-50" y="114" />
              <mxPoint x="-50" y="661" />
            </Array>
          </mxGeometry>
        </mxCell>
        <mxCell id="zENB75zG4bbWQeP3-AkJ-25" value="bstn-mdp-{ENV}-ca" style="image;aspect=fixed;html=1;points=[];align=center;fontSize=12;image=img/lib/azure2/networking/Bastions.svg;" vertex="1" parent="aoSBfK80zF7dZtvipX5W-8">
          <mxGeometry x="60.0033812949641" y="78.9855172413793" width="59.403165467625904" height="69.64028776978418" as="geometry" />
        </mxCell>
        <mxCell id="StiFzKHxYK-PWpklk6Yv-34" style="edgeStyle=orthogonalEdgeStyle;rounded=0;orthogonalLoop=1;jettySize=auto;html=1;entryX=0;entryY=0.395;entryDx=0;entryDy=0;entryPerimeter=0;" edge="1" parent="aoSBfK80zF7dZtvipX5W-8" source="zENB75zG4bbWQeP3-AkJ-25" target="zENB75zG4bbWQeP3-AkJ-28">
          <mxGeometry relative="1" as="geometry">
            <Array as="points">
              <mxPoint x="90" y="205" />
              <mxPoint x="20" y="205" />
              <mxPoint x="20" y="305" />
            </Array>
          </mxGeometry>
        </mxCell>
        <mxCell id="StiFzKHxYK-PWpklk6Yv-47" style="edgeStyle=orthogonalEdgeStyle;rounded=0;orthogonalLoop=1;jettySize=auto;html=1;entryX=-0.063;entryY=0.549;entryDx=0;entryDy=0;entryPerimeter=0;" edge="1" parent="aoSBfK80zF7dZtvipX5W-8" source="e6AIboaMO65mBt60haEZ-65" target="zENB75zG4bbWQeP3-AkJ-5">
          <mxGeometry relative="1" as="geometry" />
        </mxCell>
        <mxCell id="StiFzKHxYK-PWpklk6Yv-50" value="sn-mdp-private-{ENV}-ca" style="image;aspect=fixed;html=1;points=[];align=center;fontSize=12;image=img/lib/azure2/networking/Subnet.svg;" vertex="1" parent="aoSBfK80zF7dZtvipX5W-8">
          <mxGeometry x="564.4076258992807" y="465.54620689655167" width="81.19" height="48.62" as="geometry" />
        </mxCell>
        <mxCell id="StiFzKHxYK-PWpklk6Yv-51" value="AzureBastionSubnet" style="image;aspect=fixed;html=1;points=[];align=center;fontSize=12;image=img/lib/azure2/networking/Subnet.svg;" vertex="1" parent="aoSBfK80zF7dZtvipX5W-8">
          <mxGeometry x="919.9976258992806" y="465.54620689655167" width="81.19" height="48.62" as="geometry" />
        </mxCell>
        <mxCell id="StiFzKHxYK-PWpklk6Yv-57" style="edgeStyle=orthogonalEdgeStyle;rounded=0;orthogonalLoop=1;jettySize=auto;html=1;entryX=-0.051;entryY=0.508;entryDx=0;entryDy=0;entryPerimeter=0;" edge="1" parent="aoSBfK80zF7dZtvipX5W-8" source="StiFzKHxYK-PWpklk6Yv-50" target="StiFzKHxYK-PWpklk6Yv-53">
          <mxGeometry relative="1" as="geometry" />
        </mxCell>
        <mxCell id="StiFzKHxYK-PWpklk6Yv-52" value="nsg-mdp-bastion-{ENV}-ca" style="image;aspect=fixed;html=1;points=[];align=center;fontSize=12;image=img/lib/azure2/networking/Network_Security_Groups.svg;" vertex="1" parent="aoSBfK80zF7dZtvipX5W-8">
          <mxGeometry x="1080.003237410072" y="460.26068965517237" width="48.74820143884894" height="59.19424460431656" as="geometry" />
        </mxCell>
        <mxCell id="StiFzKHxYK-PWpklk6Yv-59" style="edgeStyle=orthogonalEdgeStyle;rounded=0;orthogonalLoop=1;jettySize=auto;html=1;entryX=0.026;entryY=0.502;entryDx=0;entryDy=0;entryPerimeter=0;" edge="1" parent="aoSBfK80zF7dZtvipX5W-8" source="StiFzKHxYK-PWpklk6Yv-51" target="StiFzKHxYK-PWpklk6Yv-52">
          <mxGeometry relative="1" as="geometry" />
        </mxCell>
        <mxCell id="zENB75zG4bbWQeP3-AkJ-19" value="ef74b0-{ENV}-vwan-spoke&#xa;" style="shape=image;verticalLabelPosition=bottom;labelBackgroundColor=#ffffff;verticalAlign=top;aspect=fixed;imageAspect=0;image=data:image/svg+xml,PHN2ZyB4bWxuczpjYz0iaHR0cDovL2NyZWF0aXZlY29tbW9ucy5vcmcvbnMjIiB4bWxuczpkYz0iaHR0cDovL3B1cmwub3JnL2RjL2VsZW1lbnRzLzEuMS8iIHhtbG5zOmlua3NjYXBlPSJodHRwOi8vd3d3Lmlua3NjYXBlLm9yZy9uYW1lc3BhY2VzL2lua3NjYXBlIiB4bWxuczpyZGY9Imh0dHA6Ly93d3cudzMub3JnLzE5OTkvMDIvMjItcmRmLXN5bnRheC1ucyMiIHhtbG5zOnNvZGlwb2RpPSJodHRwOi8vc29kaXBvZGkuc291cmNlZm9yZ2UubmV0L0RURC9zb2RpcG9kaS0wLmR0ZCIgeG1sbnM6c3ZnPSJodHRwOi8vd3d3LnczLm9yZy8yMDAwL3N2ZyIgeG1sbnM9Imh0dHA6Ly93d3cudzMub3JnLzIwMDAvc3ZnIiB4bWxuczp4bGluaz0iaHR0cDovL3d3dy53My5vcmcvMTk5OS94bGluayIgdmVyc2lvbj0iMS4xIiBpZD0ic3ZnNjEzNCIgaW5rc2NhcGU6dmVyc2lvbj0iMC45Mi4zICgyNDA1NTQ2LCAyMDE4LTAzLTExKSIgc29kaXBvZGk6ZG9jbmFtZT0idmlydHVhbF9uZXR3b3JrXzEuc3ZnIiB4PSIwcHgiIHk9IjBweCIgdmlld0JveD0iMCAwIDM0LjYxIDE5Ljg1IiBzdHlsZT0iZW5hYmxlLWJhY2tncm91bmQ6bmV3IDAgMCAzNC42MSAxOS44NTsiIHhtbDpzcGFjZT0icHJlc2VydmUiPiYjeGE7PHNvZGlwb2RpOm5hbWVkdmlldyBib3JkZXJjb2xvcj0iIzY2NjY2NiIgYm9yZGVyb3BhY2l0eT0iMSIgZml0LW1hcmdpbi1ib3R0b209IjAiIGZpdC1tYXJnaW4tbGVmdD0iMCIgZml0LW1hcmdpbi1yaWdodD0iMCIgZml0LW1hcmdpbi10b3A9IjAiIGdyaWR0b2xlcmFuY2U9IjEwIiBndWlkZXRvbGVyYW5jZT0iMTAiIGlkPSJuYW1lZHZpZXc2MTM2IiBpbmtzY2FwZTpjdXJyZW50LWxheWVyPSJzdmc2MTM0IiBpbmtzY2FwZTpjeD0iMjMuMDc1MjcxIiBpbmtzY2FwZTpjeT0iMTMuMjMyNTUiIGlua3NjYXBlOnBhZ2VvcGFjaXR5PSIwIiBpbmtzY2FwZTpwYWdlc2hhZG93PSIyIiBpbmtzY2FwZTp3aW5kb3ctaGVpZ2h0PSIxMDE3IiBpbmtzY2FwZTp3aW5kb3ctbWF4aW1pemVkPSIxIiBpbmtzY2FwZTp3aW5kb3ctd2lkdGg9IjE5MjAiIGlua3NjYXBlOndpbmRvdy14PSItOCIgaW5rc2NhcGU6d2luZG93LXk9Ii04IiBpbmtzY2FwZTp6b29tPSIxNC42Njg5NzgiIG9iamVjdHRvbGVyYW5jZT0iMTAiIHBhZ2Vjb2xvcj0iI2ZmZmZmZiIgc2hvd2dyaWQ9ImZhbHNlIj4mI3hhOwk8L3NvZGlwb2RpOm5hbWVkdmlldz4mI3hhOzxnIGlkPSJnNjEzMiIgdHJhbnNmb3JtPSJ0cmFuc2xhdGUoLTEyLjI0MTQ2MSwtMTIuMjM5MSkiPiYjeGE7CTx0aXRsZSBpZD0idGl0bGU2MTAyIj5QYWdlLTE8L3RpdGxlPiYjeGE7CTxnIGlkPSJncm91cDk1MDctMSIgdHJhbnNmb3JtPSJ0cmFuc2xhdGUoMTIuMTI4NCwtMTIuMTI4NCkiPiYjeGE7CQk8dGl0bGUgaWQ9InRpdGxlNjEwNCI+VmlydHVhbCBOZXR3b3JrICMxPC90aXRsZT4mI3hhOwkJPGcgaWQ9InNoYXBlOTUwOC0yIiB0cmFuc2Zvcm09InRyYW5zbGF0ZSgyMy43MDk5KSI+JiN4YTsJCQk8dGl0bGUgaWQ9InRpdGxlNjEwNiI+U2hlZXQuOTUwODwvdGl0bGU+JiN4YTsJCQk8cGF0aCBpZD0icGF0aDYxMDgiIGlua3NjYXBlOmNvbm5lY3Rvci1jdXJ2YXR1cmU9IjAiIHN0eWxlPSJmaWxsOiMzOTk5QzY7IiBkPSJNMTAuNzgsMzQuNzljMC4zNS0wLjM1LDAuMjgtMC45LDAtMS4yNSAgICAgbC0xLjY2LTEuNjVsLTcuNDYtNy4yNmMtMC4zNS0wLjM1LTAuODMtMC4zNS0xLjE4LDBjLTAuMzQsMC4zNC0wLjQxLDAuOSwwLDEuMjRsNy44Miw3LjY3YzAuMzQsMC4zNSwwLjM0LDAuOSwwLDEuMjVsLTcuOTUsNy45NSAgICAgYy0wLjM1LDAuMzQtMC4zNSwwLjksMCwxLjI0YzAuMzQsMC4zNSwwLjg5LDAuMjgsMS4xNywwbDcuNC03LjMyYzAsMCwwLDAsMC4wNy0wLjA3TDEwLjc4LDM0Ljc5eiIvPiYjeGE7CQk8L2c+JiN4YTsJCTxnIGlkPSJzaGFwZTk1MDktNCI+JiN4YTsJCQk8dGl0bGUgaWQ9InRpdGxlNjExMSI+U2hlZXQuOTUwOTwvdGl0bGU+JiN4YTsJCQk8cGF0aCBpZD0icGF0aDYxMTMiIGlua3NjYXBlOmNvbm5lY3Rvci1jdXJ2YXR1cmU9IjAiIHN0eWxlPSJmaWxsOiMzOTk5QzY7IiBkPSJNMC4zNSwzNC43OWMtMC4zNS0wLjM1LTAuMjgtMC45LDAtMS4yNUwyLDMxLjg5ICAgICBsNy40Ny03LjI2YzAuMzUtMC4zNSwwLjgzLTAuMzUsMS4xOCwwYzAuMzQsMC4zNCwwLjQxLDAuOSwwLDEuMjRsLTcuNjgsNy42N2MtMC4zNCwwLjM1LTAuMzQsMC45LDAsMS4yNWw3LjgxLDcuOTUgICAgIGMwLjM1LDAuMzQsMC4zNSwwLjksMCwxLjI0Yy0wLjM0LDAuMzUtMC45LDAuMjgtMS4xNywwbC03LjU0LTcuMjZjMCwwLDAsMC0wLjA3LTAuMDZMMC4zNSwzNC43OXoiLz4mI3hhOwkJPC9nPiYjeGE7CQk8ZyBpZD0ic2hhcGU5NTEwLTYiIHRyYW5zZm9ybT0idHJhbnNsYXRlKDguMDE4NTEsLTcuODgwMjYpIj4mI3hhOwkJCTx0aXRsZSBpZD0idGl0bGU2MTE2Ij5TaGVldC45NTEwPC90aXRsZT4mI3hhOwkJCTxwYXRoIGlkPSJwYXRoNjExOCIgaW5rc2NhcGU6Y29ubmVjdG9yLWN1cnZhdHVyZT0iMCIgc3R5bGU9ImZpbGw6IzdGQkEwMDsiIGQ9Ik00LjcsNDIuMDVjMCwxLjMxLTEuMTEsMi4yOC0yLjI4LDIuMjggICAgIEMxLjI0LDQ0LjMzLDAsNDMuMjIsMCw0Mi4wNWMwLTEuMTgsMC45Ny0yLjI4LDIuNDItMi4yOEMzLjgsMzkuNzcsNC43LDQwLjg3LDQuNyw0Mi4wNXoiLz4mI3hhOwkJPC9nPiYjeGE7CQk8ZyBpZD0ic2hhcGU5NTExLTgiIHRyYW5zZm9ybT0idHJhbnNsYXRlKDE1LjAwMDEsLTcuODgwMjYpIj4mI3hhOwkJCTx0aXRsZSBpZD0idGl0bGU2MTIxIj5TaGVldC45NTExPC90aXRsZT4mI3hhOwkJCTxwYXRoIGlkPSJwYXRoNjEyMyIgaW5rc2NhcGU6Y29ubmVjdG9yLWN1cnZhdHVyZT0iMCIgc3R5bGU9ImZpbGw6IzdGQkEwMDsiIGQ9Ik00LjcsNDIuMDVjMCwxLjMxLTEuMTEsMi4yOC0yLjI4LDIuMjggICAgIEMxLjI0LDQ0LjMzLDAsNDMuMjIsMCw0Mi4wNWMwLTEuMTgsMS4xMS0yLjI4LDIuNDItMi4yOFM0LjcsNDAuODcsNC43LDQyLjA1eiIvPiYjeGE7CQk8L2c+JiN4YTsJCTxnIGlkPSJzaGFwZTk1MTItMTAiIHRyYW5zZm9ybT0idHJhbnNsYXRlKDIyLjE4OTIsLTcuODgwMjYpIj4mI3hhOwkJCTx0aXRsZSBpZD0idGl0bGU2MTI2Ij5TaGVldC45NTEyPC90aXRsZT4mI3hhOwkJCTxjaXJjbGUgaWQ9ImVsbGlwc2U2MTI4IiBzdHlsZT0iZmlsbDojN0ZCQTAwOyIgY3g9IjIuMjgiIGN5PSI0Mi4wNSIgcj0iMi4yOCIvPiYjeGE7CQk8L2c+JiN4YTsJPC9nPiYjeGE7PC9nPiYjeGE7PC9zdmc+;" vertex="1" parent="aoSBfK80zF7dZtvipX5W-8">
          <mxGeometry x="558.5451798561152" y="825.5144827586207" width="87.05035971223023" height="49.740575539568354" as="geometry" />
        </mxCell>
        <mxCell id="StiFzKHxYK-PWpklk6Yv-64" style="edgeStyle=orthogonalEdgeStyle;rounded=0;orthogonalLoop=1;jettySize=auto;html=1;exitX=0.75;exitY=0;exitDx=0;exitDy=0;entryX=-0.077;entryY=0.528;entryDx=0;entryDy=0;entryPerimeter=0;" edge="1" parent="aoSBfK80zF7dZtvipX5W-8" source="zENB75zG4bbWQeP3-AkJ-19" target="StiFzKHxYK-PWpklk6Yv-51">
          <mxGeometry relative="1" as="geometry">
            <Array as="points">
              <mxPoint x="624" y="615" />
              <mxPoint x="870" y="615" />
              <mxPoint x="870" y="491" />
            </Array>
          </mxGeometry>
        </mxCell>
        <mxCell id="StiFzKHxYK-PWpklk6Yv-65" style="edgeStyle=orthogonalEdgeStyle;rounded=0;orthogonalLoop=1;jettySize=auto;html=1;exitX=0.25;exitY=0;exitDx=0;exitDy=0;entryX=-0.063;entryY=0.489;entryDx=0;entryDy=0;entryPerimeter=0;" edge="1" parent="aoSBfK80zF7dZtvipX5W-8" source="zENB75zG4bbWQeP3-AkJ-19" target="StiFzKHxYK-PWpklk6Yv-50">
          <mxGeometry relative="1" as="geometry">
            <Array as="points">
              <mxPoint x="530" y="825" />
              <mxPoint x="530" y="489" />
            </Array>
          </mxGeometry>
        </mxCell>
        <mxCell id="StiFzKHxYK-PWpklk6Yv-66" style="edgeStyle=orthogonalEdgeStyle;rounded=0;orthogonalLoop=1;jettySize=auto;html=1;exitX=0;exitY=0.5;exitDx=0;exitDy=0;entryX=0.001;entryY=0.479;entryDx=0;entryDy=0;entryPerimeter=0;" edge="1" parent="aoSBfK80zF7dZtvipX5W-8" source="zENB75zG4bbWQeP3-AkJ-19" target="StiFzKHxYK-PWpklk6Yv-39">
          <mxGeometry relative="1" as="geometry">
            <Array as="points">
              <mxPoint x="20" y="850" />
              <mxPoint x="20" y="575" />
              <mxPoint x="220" y="575" />
              <mxPoint x="220" y="492" />
            </Array>
          </mxGeometry>
        </mxCell>
        <mxCell id="StiFzKHxYK-PWpklk6Yv-70" value="" style="group" vertex="1" connectable="0" parent="aoSBfK80zF7dZtvipX5W-8">
          <mxGeometry x="229.99791366906481" y="634.97" width="81.68208633093519" height="69.1880377077648" as="geometry" />
        </mxCell>
        <mxCell id="zENB75zG4bbWQeP3-AkJ-5" value="kv-mdp-runner-${ENV}-ca" style="image;aspect=fixed;html=1;points=[];align=center;fontSize=12;image=img/lib/azure2/security/Key_Vaults.svg;" vertex="1" parent="StiFzKHxYK-PWpklk6Yv-70">
          <mxGeometry y="9.993793103448297" width="59.19424460431656" height="59.19424460431656" as="geometry" />
        </mxCell>
        <mxCell id="StiFzKHxYK-PWpklk6Yv-69" value="" style="image;aspect=fixed;html=1;points=[];align=center;fontSize=12;image=img/lib/azure2/other/Private_Endpoints.svg;" vertex="1" parent="StiFzKHxYK-PWpklk6Yv-70">
          <mxGeometry x="40.002086330935185" width="41.68" height="39.65" as="geometry" />
        </mxCell>
        <mxCell id="StiFzKHxYK-PWpklk6Yv-78" style="edgeStyle=orthogonalEdgeStyle;rounded=0;orthogonalLoop=1;jettySize=auto;html=1;entryX=-0.024;entryY=0.812;entryDx=0;entryDy=0;entryPerimeter=0;" edge="1" parent="aoSBfK80zF7dZtvipX5W-8" source="zENB75zG4bbWQeP3-AkJ-28" target="zENB75zG4bbWQeP3-AkJ-30">
          <mxGeometry relative="1" as="geometry">
            <Array as="points">
              <mxPoint x="114" y="175" />
              <mxPoint x="360" y="175" />
              <mxPoint x="360" y="137" />
            </Array>
          </mxGeometry>
        </mxCell>
        <mxCell id="StiFzKHxYK-PWpklk6Yv-81" value="" style="image;sketch=0;aspect=fixed;html=1;points=[];align=center;fontSize=12;image=img/lib/mscae/NetworkInterfaceCard.svg;" vertex="1" parent="aoSBfK80zF7dZtvipX5W-8">
          <mxGeometry x="69.99784172661873" y="264.96999999999997" width="25.63" height="29.13" as="geometry" />
        </mxCell>
        <mxCell id="StiFzKHxYK-PWpklk6Yv-84" value="" style="outlineConnect=0;dashed=0;verticalLabelPosition=bottom;verticalAlign=top;align=center;html=1;shape=mxgraph.aws3.disk;fillColor=#7D7C7C;gradientColor=none;" vertex="1" parent="aoSBfK80zF7dZtvipX5W-8">
          <mxGeometry x="65.63" y="679.6555172413794" width="30" height="24.5" as="geometry" />
        </mxCell>
        <mxCell id="StiFzKHxYK-PWpklk6Yv-85" value="" style="image;aspect=fixed;html=1;points=[];align=center;fontSize=12;image=img/lib/azure2/other/Private_Endpoints.svg;" vertex="1" parent="aoSBfK80zF7dZtvipX5W-8">
          <mxGeometry x="410" y="630" width="41.87" height="39.83" as="geometry" />
        </mxCell>
        <mxCell id="e6AIboaMO65mBt60haEZ-40" value="" style="edgeStyle=orthogonalEdgeStyle;rounded=0;orthogonalLoop=1;jettySize=auto;html=1;entryX=1;entryY=0.5;entryDx=0;entryDy=0;" parent="1" source="e6AIboaMO65mBt60haEZ-37" target="zENB75zG4bbWQeP3-AkJ-19" edge="1">
          <mxGeometry relative="1" as="geometry" />
        </mxCell>
        <mxCell id="e6AIboaMO65mBt60haEZ-45" value="" style="edgeStyle=orthogonalEdgeStyle;rounded=0;orthogonalLoop=1;jettySize=auto;html=1;entryX=0;entryY=0.5;entryDx=0;entryDy=0;" parent="1" source="e6AIboaMO65mBt60haEZ-37" target="e6AIboaMO65mBt60haEZ-32" edge="1">
          <mxGeometry relative="1" as="geometry" />
        </mxCell>
        <mxCell id="StiFzKHxYK-PWpklk6Yv-2" value="" style="group" vertex="1" connectable="0" parent="1">
          <mxGeometry x="1060" y="500" width="266" height="260" as="geometry" />
        </mxCell>
        <mxCell id="yE9apFWe85MiPLMYwhKh-3" value="" style="whiteSpace=wrap;html=1;aspect=fixed;movable=1;resizable=1;rotatable=1;deletable=1;editable=1;locked=0;connectable=1;" vertex="1" parent="StiFzKHxYK-PWpklk6Yv-2">
          <mxGeometry x="33" y="27" width="233" height="233" as="geometry" />
        </mxCell>
        <mxCell id="yE9apFWe85MiPLMYwhKh-13" value="" style="sketch=0;points=[[0,0,0],[0.25,0,0],[0.5,0,0],[0.75,0,0],[1,0,0],[0,1,0],[0.25,1,0],[0.5,1,0],[0.75,1,0],[1,1,0],[0,0.25,0],[0,0.5,0],[0,0.75,0],[1,0.25,0],[1,0.5,0],[1,0.75,0]];outlineConnect=0;fontColor=#232F3E;fillColor=#ED7100;strokeColor=#ffffff;dashed=0;verticalLabelPosition=bottom;verticalAlign=top;align=center;html=1;fontSize=12;fontStyle=0;aspect=fixed;shape=mxgraph.aws4.resourceIcon;resIcon=mxgraph.aws4.red_hat_openshift;container=0;" vertex="1" parent="StiFzKHxYK-PWpklk6Yv-2">
          <mxGeometry width="74.92" height="74.92" as="geometry" />
        </mxCell>
        <mxCell id="yE9apFWe85MiPLMYwhKh-7" value="ON-PREM PG13" style="image;aspect=fixed;html=1;points=[];align=center;fontSize=12;image=img/lib/azure2/databases/Azure_Database_PostgreSQL_Server.svg;" vertex="1" parent="StiFzKHxYK-PWpklk6Yv-2">
          <mxGeometry x="120" y="109.5" width="51" height="68" as="geometry" />
        </mxCell>
        <mxCell id="StiFzKHxYK-PWpklk6Yv-3" style="edgeStyle=orthogonalEdgeStyle;rounded=0;orthogonalLoop=1;jettySize=auto;html=1;" edge="1" parent="1" source="yE9apFWe85MiPLMYwhKh-7" target="e6AIboaMO65mBt60haEZ-36">
          <mxGeometry relative="1" as="geometry" />
        </mxCell>
        <mxCell id="StiFzKHxYK-PWpklk6Yv-45" style="edgeStyle=orthogonalEdgeStyle;rounded=0;orthogonalLoop=1;jettySize=auto;html=1;" edge="1" parent="1" source="e6AIboaMO65mBt60haEZ-36" target="zENB75zG4bbWQeP3-AkJ-29">
          <mxGeometry relative="1" as="geometry">
            <Array as="points">
              <mxPoint x="550" y="390" />
              <mxPoint x="550" y="390" />
            </Array>
          </mxGeometry>
        </mxCell>
        <mxCell id="t-2oyG9lsQ-p540-M9Bd-4" value="" style="group" vertex="1" connectable="0" parent="1">
          <mxGeometry x="-750" y="1370" width="1310" height="630" as="geometry" />
        </mxCell>
        <mxCell id="t-2oyG9lsQ-p540-M9Bd-3" value="" style="shape=ext;double=1;rounded=1;whiteSpace=wrap;html=1;" vertex="1" parent="t-2oyG9lsQ-p540-M9Bd-4">
          <mxGeometry width="1310" height="630" as="geometry" />
        </mxCell>
        <mxCell id="e6AIboaMO65mBt60haEZ-67" value="&lt;div&gt;&lt;font style=&quot;font-size: 18px;&quot;&gt;&lt;br&gt;&lt;/font&gt;&lt;/div&gt;&lt;div&gt;&lt;font size=&quot;3&quot;&gt;### Resource Group Organization&lt;/font&gt;&lt;/div&gt;&lt;div&gt;&lt;font size=&quot;3&quot;&gt;&lt;br&gt;&lt;/font&gt;&lt;/div&gt;&lt;div&gt;&lt;font size=&quot;3&quot;&gt;#### 1. **Core Infrastructure RG**&lt;/font&gt;&lt;/div&gt;&lt;div&gt;&lt;font size=&quot;3&quot;&gt;&amp;nbsp; &amp;nbsp;- **Purpose**: To host core infrastructure resources that support multiple services or applications.&lt;/font&gt;&lt;/div&gt;&lt;div&gt;&lt;font size=&quot;3&quot;&gt;&amp;nbsp; &amp;nbsp;- **Resources**:&lt;/font&gt;&lt;/div&gt;&lt;div&gt;&lt;font size=&quot;3&quot;&gt;&amp;nbsp; &amp;nbsp; &amp;nbsp;- **Key Vault** – for secrets, keys, and certificates used across applications.&lt;/font&gt;&lt;/div&gt;&lt;div&gt;&lt;font size=&quot;3&quot;&gt;&amp;nbsp; &amp;nbsp; &amp;nbsp;- **Storage Account** – if used as general-purpose storage or for multiple services.&lt;/font&gt;&lt;/div&gt;&lt;div&gt;&lt;font size=&quot;3&quot;&gt;&lt;br&gt;&lt;/font&gt;&lt;/div&gt;&lt;div&gt;&lt;font size=&quot;3&quot;&gt;#### 2. **Data &amp;amp; Analytics RG**&lt;/font&gt;&lt;/div&gt;&lt;div&gt;&lt;font size=&quot;3&quot;&gt;&amp;nbsp; &amp;nbsp;- **Purpose**: For resources specific to your data processing and analytics pipelines.&lt;/font&gt;&lt;/div&gt;&lt;div&gt;&lt;font size=&quot;3&quot;&gt;&amp;nbsp; &amp;nbsp;- **Resources**:&lt;/font&gt;&lt;/div&gt;&lt;div&gt;&lt;font size=&quot;3&quot;&gt;&amp;nbsp; &amp;nbsp; &amp;nbsp;- **Data Factory** – handles data movement and transformation.&lt;/font&gt;&lt;/div&gt;&lt;div&gt;&lt;font size=&quot;3&quot;&gt;&amp;nbsp; &amp;nbsp; &amp;nbsp;- **VM for Data Factory Integration Runtime** – hosts the self-hosted integration runtime for Data Factory.&lt;/font&gt;&lt;/div&gt;&lt;div&gt;&lt;font size=&quot;3&quot;&gt;&amp;nbsp; &amp;nbsp; &amp;nbsp;- **Postgres Azure Database** – if it’s primarily used for analytical or ETL purposes.&lt;/font&gt;&lt;/div&gt;&lt;div&gt;&lt;font size=&quot;3&quot;&gt;&amp;nbsp; &amp;nbsp; &amp;nbsp;- **Document Intelligence** – if it’s used for processing and analyzing documents within your data workflows.&lt;/font&gt;&lt;/div&gt;&lt;div&gt;&lt;font size=&quot;3&quot;&gt;&lt;br&gt;&lt;/font&gt;&lt;/div&gt;&lt;div&gt;&lt;font size=&quot;3&quot;&gt;#### 3. **Security &amp;amp; Administration RG**&lt;/font&gt;&lt;/div&gt;&lt;div&gt;&lt;font size=&quot;3&quot;&gt;&amp;nbsp; &amp;nbsp;- **Purpose**: Dedicated to sensitive resources related to administrative access and emergency access.&lt;/font&gt;&lt;/div&gt;&lt;div&gt;&lt;font size=&quot;3&quot;&gt;&amp;nbsp; &amp;nbsp;- **Resources**:&lt;/font&gt;&lt;/div&gt;&lt;div&gt;&lt;font size=&quot;3&quot;&gt;&amp;nbsp; &amp;nbsp; &amp;nbsp;- **Virtual Machine Emergency Jumpbox** – used for emergency access and administration. Keep this isolated for enhanced security.&lt;/font&gt;&lt;/div&gt;&lt;div&gt;&lt;font size=&quot;3&quot;&gt;&lt;br&gt;&lt;/font&gt;&lt;/div&gt;&lt;div&gt;&lt;font size=&quot;3&quot;&gt;---&lt;/font&gt;&lt;/div&gt;&lt;div&gt;&lt;font size=&quot;3&quot;&gt;&lt;br&gt;&lt;/font&gt;&lt;/div&gt;&lt;div&gt;&lt;font size=&quot;3&quot;&gt;### Justification for This Structure&lt;/font&gt;&lt;/div&gt;&lt;div&gt;&lt;font size=&quot;3&quot;&gt;&lt;br&gt;&lt;/font&gt;&lt;/div&gt;&lt;div&gt;&lt;font size=&quot;3&quot;&gt;- **Isolation by Purpose**: Separating resources by their purpose or sensitivity level ensures that permissions are allocated based on need, limiting unnecessary access.&lt;/font&gt;&lt;/div&gt;&lt;div&gt;&lt;font size=&quot;3&quot;&gt;- **Easier Management**: Grouping by usage, such as &quot;Data &amp;amp; Analytics&quot; or &quot;Security,&quot; makes it simpler to manage policies, budgeting, and access controls.&lt;/font&gt;&lt;/div&gt;&lt;div&gt;&lt;font size=&quot;3&quot;&gt;- **Enhanced Security**: Keeping the Jumpbox isolated in its own resource group minimizes exposure to the broader set of resources.&lt;/font&gt;&lt;/div&gt;" style="text;html=1;align=center;verticalAlign=middle;resizable=0;points=[];autosize=1;strokeColor=none;fillColor=none;" parent="t-2oyG9lsQ-p540-M9Bd-4" vertex="1">
          <mxGeometry x="40" y="30" width="1210" height="570" as="geometry" />
        </mxCell>
      </root>
    </mxGraphModel>
  </diagram>
</mxfile>
